<svg width="184" height="79" viewBox="0 0 184 79" fill="none" xmlns="http://www.w3.org/2000/svg">
<g filter="url(#filter0_d_1068:10174)">
<path d="M167.48 26.1624L162.584 22.3628C161.756 21.7206 161.683 20.4969 162.428 19.7605L167.324 14.9202C168.419 13.8379 170.276 14.6135 170.276 16.153V24.7929C170.276 26.2346 168.619 27.0463 167.48 26.1624Z" fill="url(#paint0_linear_1068:10174)"/>
<path d="M167.48 26.1624L162.584 22.3628C161.756 21.7206 161.683 20.4969 162.428 19.7605L167.324 14.9202C168.419 13.8379 170.276 14.6135 170.276 16.153V24.7929C170.276 26.2346 168.619 27.0463 167.48 26.1624Z" stroke="url(#paint1_linear_1068:10174)" stroke-width="3.46698" stroke-linecap="round" stroke-linejoin="round"/>
</g>
<g filter="url(#filter1_d_1068:10174)">
<path d="M17.0583 14.1701L21.9545 17.9698C22.782 18.6119 22.8554 19.8357 22.1104 20.572L17.2142 25.4123C16.1193 26.4946 14.262 25.7191 14.262 24.1795L14.262 15.5396C14.262 14.0979 15.9193 13.2862 17.0583 14.1701Z" fill="url(#paint2_linear_1068:10174)"/>
<path d="M17.0583 14.1701L21.9545 17.9698C22.782 18.6119 22.8554 19.8357 22.1104 20.572L17.2142 25.4123C16.1193 26.4946 14.262 25.7191 14.262 24.1795L14.262 15.5396C14.262 14.0979 15.9193 13.2862 17.0583 14.1701Z" stroke="url(#paint3_linear_1068:10174)" stroke-width="3.46698" stroke-linecap="round" stroke-linejoin="round"/>
</g>
<g filter="url(#filter2_d_1068:10174)">
<path d="M19.9265 21.7486L14.6807 27.8405C14.4097 28.1551 14.2607 28.5565 14.2607 28.9717V57.349C14.2607 57.7642 14.4097 58.1655 14.6807 58.4801L19.9265 64.5721C20.2558 64.9545 20.7354 65.1744 21.2401 65.1744H163.611C164.157 65.1744 164.67 64.9179 164.997 64.4819L169.928 57.9177C170.153 57.6175 170.275 57.2522 170.275 56.8767V28.9405C170.275 28.5443 170.139 28.16 169.89 27.8517L164.998 21.7909C164.669 21.3832 164.173 21.1462 163.649 21.1462H21.2401C20.7354 21.1462 20.2558 21.3662 19.9265 21.7486Z" fill="url(#paint4_linear_1068:10174)"/>
<path d="M19.9265 21.7486L14.6807 27.8405C14.4097 28.1551 14.2607 28.5565 14.2607 28.9717V57.349C14.2607 57.7642 14.4097 58.1655 14.6807 58.4801L19.9265 64.5721C20.2558 64.9545 20.7354 65.1744 21.2401 65.1744H163.611C164.157 65.1744 164.67 64.9179 164.997 64.4819L169.928 57.9177C170.153 57.6175 170.275 57.2522 170.275 56.8767V28.9405C170.275 28.5443 170.139 28.16 169.89 27.8517L164.998 21.7909C164.669 21.3832 164.173 21.1462 163.649 21.1462H21.2401C20.7354 21.1462 20.2558 21.3662 19.9265 21.7486Z" stroke="url(#paint5_linear_1068:10174)" stroke-width="3.46698" stroke-linecap="round" stroke-linejoin="round"/>
</g>
<path d="M54.8532 50.7324C58.6945 50.7324 61.3415 48.4363 61.9817 44.5642C62.6465 40.5691 60.6643 38.1252 56.86 38.1252H52.4155L50.3225 50.7324H54.8532ZM53.3696 48.4486L54.6993 40.409H56.4599C58.8237 40.409 59.8333 41.5356 59.3778 44.2749C58.9038 47.1497 57.3833 48.4486 55.0071 48.4486H53.3696ZM67.1695 50.9171C70.0259 50.9171 72.1127 48.9718 72.5867 46.0786C73.0669 43.1361 71.6018 41.1539 68.7208 41.1539C65.8583 41.1539 63.7715 43.093 63.3037 45.9986C62.8173 48.9349 64.2824 50.9171 67.1695 50.9171ZM67.4342 48.8857C66.1415 48.8857 65.6798 47.6914 65.9445 46.0663C66.2154 44.398 67.1264 43.1546 68.4561 43.1546C69.7488 43.1546 70.2044 44.3549 69.9458 45.9863C69.6688 47.6545 68.7578 48.8857 67.4342 48.8857ZM75.1445 50.7324H77.9146L80.5247 44.7859H80.6416L81.2819 50.7324H84.0582L88.201 41.277H85.554L83.0547 47.5929H82.9747L82.4823 41.277H79.8783L77.2929 47.6299H77.2067L76.8004 41.277H74.1472L75.1445 50.7324ZM91.5698 45.266C91.7791 44.0472 92.6225 43.3331 93.6875 43.3331C94.7463 43.3331 95.251 44.0225 95.0602 45.1798L94.1307 50.7324H96.7531L97.7626 44.712C98.132 42.502 97.0547 41.1539 95.091 41.1539C93.6813 41.1539 92.5425 41.8372 91.9454 42.9453H91.8407L92.1116 41.277H89.6184L88.0425 50.7324H90.6588L91.5698 45.266ZM103.523 38.1252H100.901L98.8076 50.7324H101.43L103.523 38.1252ZM107.815 50.9171C110.671 50.9171 112.758 48.9718 113.232 46.0786C113.712 43.1361 112.247 41.1539 109.366 41.1539C106.504 41.1539 104.417 43.093 103.949 45.9986C103.463 48.9349 104.928 50.9171 107.815 50.9171ZM108.08 48.8857C106.787 48.8857 106.325 47.6914 106.59 46.0663C106.861 44.398 107.772 43.1546 109.102 43.1546C110.394 43.1546 110.85 44.3549 110.591 45.9863C110.314 47.6545 109.403 48.8857 108.08 48.8857ZM116.834 50.9109C118.231 50.9109 119.24 50.3015 119.844 49.4212H119.918L119.696 50.7324H122.183L123.248 44.3549C123.617 42.1019 121.863 41.1539 119.77 41.1539C117.498 41.1539 115.818 42.2373 115.178 43.961L117.566 44.158C117.849 43.5301 118.52 43.0684 119.456 43.0684C120.342 43.0684 120.761 43.5177 120.638 44.2934V44.3303C120.527 44.9336 119.856 45.0136 118.2 45.1798C116.298 45.3522 114.519 45.9863 114.162 48.0916C113.854 49.9568 115.036 50.9109 116.834 50.9109ZM117.886 49.1011C117.067 49.1011 116.569 48.7195 116.68 48.0054C116.797 47.2667 117.48 46.9035 118.428 46.7742C119 46.6819 119.967 46.5587 120.305 46.3494L120.145 47.3529C119.973 48.3439 119.037 49.1011 117.886 49.1011ZM127.696 50.8863C129.216 50.8863 130.152 50.006 130.65 49.2181H130.761L130.509 50.7324H133.094L135.187 38.1252H132.565L131.777 42.8652H131.697C131.481 42.0957 130.878 41.1539 129.296 41.1539C127.215 41.1539 125.196 42.7667 124.661 46.017C124.137 49.1811 125.529 50.8863 127.696 50.8863ZM128.847 48.7995C127.554 48.7995 127.068 47.6545 127.345 46.0047C127.609 44.3673 128.465 43.2407 129.764 43.2407C131.038 43.2407 131.592 44.318 131.315 46.0047C131.038 47.6914 130.109 48.7995 128.847 48.7995Z" fill="black"/>
<defs>
<filter id="filter0_d_1068:10174" x="148.623" y="1.12247" width="34.9433" height="38.7005" filterUnits="userSpaceOnUse" color-interpolation-filters="sRGB">
<feFlood flood-opacity="0" result="BackgroundImageFix"/>
<feColorMatrix in="SourceAlpha" type="matrix" values="0 0 0 0 0 0 0 0 0 0 0 0 0 0 0 0 0 0 127 0" result="hardAlpha"/>
<feOffset/>
<feGaussianBlur stdDeviation="5.7783"/>
<feColorMatrix type="matrix" values="0 0 0 0 0 0 0 0 0 0 0 0 0 0 0 0 0 0 1 0"/>
<feBlend mode="normal" in2="BackgroundImageFix" result="effect1_dropShadow_1068:10174"/>
<feBlend mode="normal" in="SourceGraphic" in2="effect1_dropShadow_1068:10174" result="shape"/>
</filter>
<filter id="filter1_d_1068:10174" x="0.971711" y="0.509553" width="34.9433" height="38.7005" filterUnits="userSpaceOnUse" color-interpolation-filters="sRGB">
<feFlood flood-opacity="0" result="BackgroundImageFix"/>
<feColorMatrix in="SourceAlpha" type="matrix" values="0 0 0 0 0 0 0 0 0 0 0 0 0 0 0 0 0 0 127 0" result="hardAlpha"/>
<feOffset/>
<feGaussianBlur stdDeviation="5.7783"/>
<feColorMatrix type="matrix" values="0 0 0 0 0 0 0 0 0 0 0 0 0 0 0 0 0 0 1 0"/>
<feBlend mode="normal" in2="BackgroundImageFix" result="effect1_dropShadow_1068:10174"/>
<feBlend mode="normal" in="SourceGraphic" in2="effect1_dropShadow_1068:10174" result="shape"/>
</filter>
<filter id="filter2_d_1068:10174" x="0.970735" y="7.85611" width="182.595" height="70.6083" filterUnits="userSpaceOnUse" color-interpolation-filters="sRGB">
<feFlood flood-opacity="0" result="BackgroundImageFix"/>
<feColorMatrix in="SourceAlpha" type="matrix" values="0 0 0 0 0 0 0 0 0 0 0 0 0 0 0 0 0 0 127 0" result="hardAlpha"/>
<feOffset/>
<feGaussianBlur stdDeviation="5.7783"/>
<feColorMatrix type="matrix" values="0 0 0 0 0 0 0 0 0 0 0 0 0 0 0 0 0 0 1 0"/>
<feBlend mode="normal" in2="BackgroundImageFix" result="effect1_dropShadow_1068:10174"/>
<feBlend mode="normal" in="SourceGraphic" in2="effect1_dropShadow_1068:10174" result="shape"/>
</filter>
<linearGradient id="paint0_linear_1068:10174" x1="87.1819" y1="60.7314" x2="-75.9949" y2="21.7647" gradientUnits="userSpaceOnUse">
<stop stop-color="#00B2FF"/>
<stop offset="1" stop-color="#00FFE0"/>
</linearGradient>
<linearGradient id="paint1_linear_1068:10174" x1="5.81244" y1="21.1505" x2="5.81244" y2="65.1787" gradientUnits="userSpaceOnUse">
<stop offset="0.0525993"/>
<stop offset="1" stop-color="#0BE2FF"/>
</linearGradient>
<linearGradient id="paint2_linear_1068:10174" x1="97.3562" y1="-20.3989" x2="260.533" y2="18.5678" gradientUnits="userSpaceOnUse">
<stop stop-color="#00B2FF"/>
<stop offset="1" stop-color="#00FFE0"/>
</linearGradient>
<linearGradient id="paint3_linear_1068:10174" x1="178.726" y1="19.182" x2="178.726" y2="-24.8462" gradientUnits="userSpaceOnUse">
<stop offset="0.0525993"/>
<stop offset="1" stop-color="#0BE2FF"/>
</linearGradient>
<linearGradient id="paint4_linear_1068:10174" x1="118.221" y1="60.7271" x2="12.5343" y2="44.9168" gradientUnits="userSpaceOnUse">
<stop stop-color="#00B2FF"/>
<stop offset="1" stop-color="#00FFE0"/>
</linearGradient>
<linearGradient id="paint5_linear_1068:10174" x1="67.2467" y1="21.1462" x2="67.2467" y2="65.1744" gradientUnits="userSpaceOnUse">
<stop offset="0.0525993"/>
<stop offset="1" stop-color="#0BE2FF"/>
</linearGradient>
</defs>
</svg>
