<svg xmlns="http://www.w3.org/2000/svg" width="208" height="36" fill="none" viewBox="0 0 208 36"><g id="Brahmosbrahmos interactive logo"><g id="BrahmosGroup 15"><g id="BrahmosGroup 7"><g id="BrahmosBRAHMOS"><path fill="#fff" d="M22.3407 9.80517C23.1806 10.0533 23.8868 10.54 24.4594 11.2653C25.0511 11.9907 25.347 12.9259 25.347 14.0712C25.347 14.8728 25.2229 15.6173 24.9748 16.3044C24.7266 16.9724 24.3067 17.5546 23.715 18.0509C23.1233 18.5471 22.3216 18.9384 21.31 19.2247C20.3175 19.5111 19.0672 19.6542 17.5593 19.6542H0.724365V8.00142H17.6739C18.1129 8.00142 18.4946 7.91553 18.8191 7.74375C19.1627 7.55287 19.3345 7.2093 19.3345 6.71303C19.3345 6.23585 19.1627 5.91137 18.8191 5.73958C18.4755 5.5678 18.0938 5.4819 17.6739 5.4819H0.724365L4.7327 0.500122H17.4162C18.5614 0.500122 19.5921 0.614646 20.5083 0.843693C21.4436 1.05365 22.2357 1.38768 22.8847 1.84578C23.5528 2.28478 24.0586 2.83831 24.4021 3.50637C24.7648 4.15534 24.9461 4.91883 24.9461 5.79684C24.9461 6.36946 24.8698 6.87527 24.7171 7.31428C24.5644 7.75329 24.364 8.14458 24.1158 8.48815C23.8868 8.81263 23.61 9.0894 23.2855 9.31845C22.9801 9.52841 22.6652 9.69065 22.3407 9.80517ZM6.6796 12.0956V14.7297H17.588C18.2369 14.7297 18.7046 14.6152 18.9909 14.3861C19.2772 14.1571 19.4204 13.823 19.4204 13.384C19.4204 12.9641 19.2772 12.6492 18.9909 12.4392C18.7046 12.2102 18.2369 12.0956 17.588 12.0956H6.6796Z"/><path fill="#fff" d="M200.075 8.14458C202.423 8.14458 204.207 8.58359 205.429 9.4616C206.651 10.3205 207.261 11.628 207.261 13.384C207.261 14.3575 207.109 15.2355 206.803 16.0181C206.498 16.8007 206.011 17.4592 205.343 17.9936C204.675 18.5281 203.816 18.9384 202.766 19.2247C201.736 19.5111 200.495 19.6542 199.044 19.6542H181.207L185.015 14.7297H199.502C200.209 14.7297 200.724 14.6247 201.048 14.4148C201.373 14.1857 201.535 13.823 201.535 13.3268C201.535 12.8305 201.373 12.4774 201.048 12.2674C200.724 12.0575 200.209 11.9525 199.502 11.9525H189.081C187.84 11.9525 186.771 11.8189 185.874 11.5517C184.977 11.2844 184.233 10.9122 183.641 10.4351C183.049 9.95787 182.61 9.38525 182.324 8.7172C182.037 8.03006 181.894 7.27611 181.894 6.45535C181.894 5.55825 182.047 4.74704 182.352 4.02173C182.677 3.27732 183.164 2.64744 183.813 2.13208C184.481 1.61673 185.33 1.21589 186.361 0.929585C187.411 0.643277 188.661 0.500122 190.111 0.500122H206.746L202.938 5.4819H189.653C188.966 5.4819 188.451 5.57734 188.107 5.76821C187.783 5.95908 187.621 6.30266 187.621 6.79892C187.621 7.29519 187.783 7.64831 188.107 7.85827C188.451 8.04914 188.966 8.14458 189.653 8.14458H200.075Z"/></g><g id="BrahmosGroup 1"><g id="BrahmosINTERACTiVE"><path fill="#fff" d="M3.00992 34.1078H0.994873V27.5954H3.00992V34.1078Z"/><path fill="#fff" d="M22.5458 34.2148C22.416 34.2148 22.2862 34.1921 22.1564 34.1467C22.0331 34.1078 21.8936 34.0136 21.7378 33.8644L17.7467 30.2821V34.1078H15.9166V28.7051C15.9166 28.4909 15.9458 28.306 16.0042 28.1502C16.0691 27.9945 16.1502 27.8679 16.2476 27.7706C16.3514 27.6732 16.4682 27.6019 16.598 27.5564C16.7343 27.511 16.8738 27.4883 17.0166 27.4883C17.1399 27.4883 17.2632 27.511 17.3865 27.5564C17.5163 27.5954 17.6623 27.6895 17.8246 27.8387L21.8157 31.421V27.5954H23.6555V32.9883C23.6555 33.2024 23.6231 33.3874 23.5582 33.5431C23.4998 33.6989 23.4187 33.8287 23.3148 33.9325C23.2175 34.0299 23.1007 34.1013 22.9644 34.1467C22.8281 34.1921 22.6886 34.2148 22.5458 34.2148Z"/><path fill="#fff" d="M44.6145 27.5954L43.3101 29.2892H40.9836V34.1078H38.9685V29.2892H35.9119L37.2163 27.5954H44.6145Z"/><path fill="#fff" d="M64.4686 32.4334L63.1739 34.1078H56.9049V27.5954H64.4492L63.1447 29.2892H58.9297V30.0679H64.089L62.9306 31.5476H58.9297V32.4334H64.4686Z"/><path fill="#fff" d="M86.0759 34.1078H83.3794L81.929 32.3847H78.8334V34.1078H76.8184V30.7785H82.4838C82.7953 30.7785 83.0582 30.7136 83.2723 30.5839C83.4865 30.4541 83.5936 30.2756 83.5936 30.0485C83.5936 29.7954 83.4962 29.6072 83.3015 29.4839C83.1069 29.3541 82.8343 29.2892 82.4838 29.2892H76.8184L78.1325 27.5954H82.3184C82.6883 27.5954 83.0712 27.6311 83.467 27.7024C83.8629 27.7673 84.2231 27.8874 84.5476 28.0626C84.872 28.2378 85.1381 28.4747 85.3458 28.7732C85.56 29.0718 85.667 29.4547 85.667 29.9219C85.667 30.175 85.6281 30.4151 85.5502 30.6423C85.4723 30.8694 85.3588 31.0738 85.2095 31.2555C85.0667 31.4372 84.8883 31.593 84.6741 31.7228C84.4664 31.8461 84.2296 31.9337 83.9635 31.9856C84.0738 32.07 84.1971 32.1771 84.3334 32.3069C84.4697 32.4367 84.6514 32.6151 84.8785 32.8423L86.0759 34.1078Z"/><path fill="#fff" d="M101.237 34.1078L102.454 32.4334H104.089C104.284 32.4334 104.485 32.4334 104.693 32.4334C104.907 32.4334 105.092 32.4399 105.247 32.4529C105.157 32.3361 105.049 32.1901 104.926 32.0148C104.809 31.8331 104.696 31.6644 104.585 31.5086L103.417 29.7856L100.361 34.1078H97.9757L102.152 28.2184C102.288 28.0302 102.46 27.8614 102.668 27.7122C102.875 27.5629 103.138 27.4883 103.456 27.4883C103.761 27.4883 104.014 27.5597 104.216 27.7024C104.423 27.8387 104.598 28.0107 104.741 28.2184L108.81 34.1078H101.237Z"/><path fill="#fff" d="M128.496 32.4334L127.201 34.1078H123.93C123.366 34.1078 122.843 34.0234 122.363 33.8547C121.883 33.6859 121.467 33.4555 121.117 33.1635C120.773 32.865 120.5 32.5145 120.299 32.1122C120.104 31.7033 120.007 31.262 120.007 30.7883C120.007 30.3145 120.104 29.883 120.299 29.4936C120.5 29.0977 120.773 28.7603 121.117 28.4812C121.467 28.1957 121.883 27.9783 122.363 27.829C122.843 27.6732 123.366 27.5954 123.93 27.5954H128.496L127.201 29.2892H123.93C123.658 29.2892 123.404 29.3281 123.171 29.406C122.937 29.4839 122.736 29.5942 122.567 29.737C122.399 29.8732 122.266 30.0387 122.168 30.2334C122.071 30.4281 122.022 30.6423 122.022 30.8759C122.022 31.1095 122.068 31.3237 122.158 31.5184C122.256 31.7066 122.389 31.8688 122.558 32.0051C122.733 32.1414 122.937 32.2485 123.171 32.3263C123.404 32.3977 123.658 32.4334 123.93 32.4334H128.496Z"/><path fill="#fff" d="M148.966 27.5954L147.661 29.2892H145.335V34.1078H143.32V29.2892H140.263L141.568 27.5954H148.966Z"/><path fill="#fff" d="M178.203 27.5954L181.133 31.9175L184.189 27.5954H186.565L182.398 33.4847C182.256 33.6729 182.08 33.8417 181.873 33.9909C181.665 34.1402 181.405 34.2148 181.094 34.2148C180.789 34.2148 180.533 34.1467 180.325 34.0104C180.124 33.8676 179.952 33.6924 179.809 33.4847L175.73 27.5954H178.203Z"/><path fill="#fff" d="M206.528 32.4334L205.233 34.1078H198.964V27.5954H206.508L205.204 29.2892H200.989V30.0679H206.148L204.99 31.5476H200.989V32.4334H206.528Z"/></g></g></g><path id="BrahmosVector" fill="#fff" fill-rule="evenodd" d="M162.501 33.5736C162.214 33.6813 161.028 33.1419 160.921 32.8544C160.885 32.7587 160.909 32.5311 160.993 32.1718L160.168 32.2657C160.119 32.2713 160.07 32.265 160.024 32.2475C159.978 32.2299 159.937 32.2016 159.904 32.1649C159.871 32.1281 159.848 32.084 159.836 32.0363C159.824 31.9886 159.823 31.9387 159.834 31.8908L159.938 31.4479C159.952 31.3862 159.985 31.3305 160.033 31.2884C160.08 31.2463 160.139 31.2199 160.202 31.2128L161.245 31.094C161.749 28.9385 163.258 27.7174 164.408 27.2867C164.839 28.4366 164.91 30.3768 163.616 32.1728L164.211 33.0367C164.247 33.0888 164.266 33.1508 164.266 33.2142C164.265 33.2775 164.245 33.3391 164.208 33.3905L163.942 33.7596C163.913 33.7995 163.875 33.8319 163.831 33.8541C163.787 33.8763 163.738 33.8876 163.689 33.8871C163.64 33.8865 163.592 33.8742 163.548 33.8511C163.505 33.8279 163.468 33.7947 163.44 33.7542L162.969 33.0708C162.753 33.3702 162.597 33.5378 162.501 33.5736ZM163.401 30.2864C163.515 30.2436 163.608 30.1571 163.658 30.0459C163.709 29.9348 163.713 29.8081 163.671 29.6937C163.628 29.5793 163.541 29.4867 163.43 29.4361C163.319 29.3855 163.192 29.3812 163.078 29.424C162.963 29.4668 162.871 29.5534 162.82 29.6645C162.77 29.7757 162.765 29.9024 162.808 30.0167C162.851 30.1311 162.937 30.2238 163.049 30.2743C163.16 30.3249 163.286 30.3293 163.401 30.2864ZM160.741 33.2496L161.19 33.5731C161.07 33.8367 161.064 34.112 161.172 34.3995C161.459 34.2918 161.663 34.1064 161.783 33.8428L162.322 33.9688C162.117 34.4192 161.719 34.7823 161.129 35.0574C161.089 35.0762 161.045 35.086 161 35.0862C160.956 35.0864 160.912 35.077 160.872 35.0587C160.831 35.0403 160.796 35.0134 160.767 34.9798C160.738 34.9463 160.716 34.9068 160.704 34.8642C160.524 34.2384 160.536 33.7001 160.741 33.2496Z" clip-rule="evenodd"/></g><g id="BrahmosGroup 23"><path id="BrahmosBRAHMOS_2" fill="url(#Brahmospaint0_linear)" d="M55.4916 19.6542H47.5608L43.2948 14.5865H34.1902V19.6542H28.2635V9.86243H44.9268C45.8429 9.86243 46.616 9.67156 47.2459 9.28981C47.8757 8.90807 48.1907 8.38317 48.1907 7.71512C48.1907 6.97071 47.9044 6.41718 47.3318 6.05452C46.7591 5.67278 45.9575 5.4819 44.9268 5.4819H28.2635L32.1287 0.500122H44.44C45.528 0.500122 46.6542 0.605102 47.8185 0.815062C48.9828 1.00594 50.0421 1.35905 50.9965 1.87441C51.9509 2.38976 52.7335 3.08645 53.3442 3.96446C53.9741 4.84248 54.2891 5.96863 54.2891 7.34291C54.2891 8.08732 54.1745 8.79355 53.9455 9.4616C53.7164 10.1297 53.3824 10.7309 52.9434 11.2653C52.5235 11.7998 51.9986 12.2579 51.3687 12.6396C50.7579 13.0023 50.0612 13.26 49.2787 13.4127C49.6031 13.6608 49.9658 13.9757 50.3666 14.3575C50.7675 14.7392 51.3019 15.2641 51.97 15.9322L55.4916 19.6542Z"/><g id="BrahmosMask Group"><mask id="Brahmosmask0" width="28" height="20" x="28" y="0" maskUnits="userSpaceOnUse" style="mask-type:alpha"><path id="BrahmosBRAHMOS_3" fill="#000" d="M55.4916 19.6542H47.5608L43.2948 14.5865H34.1902V19.6542H28.2635V9.86243H44.9268C45.8429 9.86243 46.616 9.67156 47.2459 9.28981C47.8757 8.90807 48.1907 8.38317 48.1907 7.71512C48.1907 6.97071 47.9044 6.41718 47.3318 6.05452C46.7591 5.67278 45.9575 5.4819 44.9268 5.4819H28.2635L32.1287 0.500122H44.44C45.528 0.500122 46.6542 0.605102 47.8185 0.815062C48.9828 1.00594 50.0421 1.35905 50.9965 1.87441C51.9509 2.38976 52.7335 3.08645 53.3442 3.96446C53.9741 4.84248 54.2891 5.96863 54.2891 7.34291C54.2891 8.08732 54.1745 8.79355 53.9455 9.4616C53.7164 10.1297 53.3824 10.7309 52.9434 11.2653C52.5235 11.7998 51.9986 12.2579 51.3687 12.6396C50.7579 13.0023 50.0612 13.26 49.2787 13.4127C49.6031 13.6608 49.9658 13.9757 50.3666 14.3575C50.7675 14.7392 51.3019 15.2641 51.97 15.9322L55.4916 19.6542Z"/></mask><g mask="url(#Brahmosmask0)"><path id="BrahmosVector 12" fill="url(#Brahmospaint1_linear)" d="M45.6712 6.66936L28.4586 8.49591L27.5571 4.05991L28.0067 0.548003C36.7001 -0.0154659 52.9716 -2.30612 53.6478 2.13719C54.324 6.5805 50.4811 8.03448 45.6712 6.66936Z"/></g></g></g><g id="BrahmosGroup 22"><path id="BrahmosBRAHMOS_4" fill="url(#Brahmospaint2_linear)" d="M65.7251 19.6541L69.304 14.7296H74.114C74.6866 14.7296 75.2783 14.7296 75.8891 14.7296C76.519 14.7296 77.063 14.7487 77.5211 14.7868C77.2539 14.4433 76.9389 14.0138 76.5763 13.4984C76.2327 12.964 75.8987 12.4677 75.5742 12.0096L72.1385 6.94196L63.1484 19.6541H56.1338L68.4165 2.33238C68.8173 1.77885 69.3231 1.28258 69.9339 0.84357C70.5447 0.404562 71.3177 0.185059 72.253 0.185059C73.1501 0.185059 73.8945 0.395019 74.4862 0.814938C75.097 1.21577 75.6124 1.72158 76.0323 2.33238L88 19.6541H65.7251Z"/><g id="BrahmosMask Group_2"><mask id="Brahmosmask1" width="33" height="20" x="56" y="0" maskUnits="userSpaceOnUse" style="mask-type:alpha"><path id="BrahmosBRAHMOS_5" fill="#000" d="M65.7416 19.6541L69.3205 14.7296H74.1305C74.7031 14.7296 75.2948 14.7296 75.9056 14.7296C76.5355 14.7296 77.0795 14.7487 77.5376 14.7868C77.2703 14.4433 76.9554 14.0138 76.5927 13.4984C76.2492 12.964 75.9151 12.4677 75.5907 12.0096L72.155 6.94196L63.1648 19.6541H56.1503L68.4329 2.33238C68.8338 1.77885 69.3396 1.28258 69.9504 0.84357C70.5612 0.404562 71.3342 0.185059 72.2695 0.185059C73.1666 0.185059 73.911 0.395019 74.5027 0.814938C75.1135 1.21577 75.6288 1.72158 76.0488 2.33238L88.0165 19.6541H65.7416Z"/></mask><g mask="url(#Brahmosmask1)"><path id="BrahmosVector 12_2" fill="url(#Brahmospaint3_linear)" d="M67.1538 16.1835L63.9886 20.266L55.4868 20.266C60.3863 13.0627 71.1113 -8.71381 75.0316 -6.51575C78.9519 -4.31769 68.9285 13.3825 67.1538 16.1835Z"/></g></g><g id="BrahmosGroup 21"><path id="BrahmosBRAHMOS_6" fill="url(#Brahmospaint4_linear)" d="M113.358 19.6541H107.46V12.2673H96.0652V19.6541H90.11V0.5H96.0652V7.28553H107.46V0.5H113.358V19.6541Z"/><g id="BrahmosMask Group_3"><mask id="Brahmosmask2" width="24" height="20" x="90" y="0" maskUnits="userSpaceOnUse" style="mask-type:alpha"><path id="BrahmosBRAHMOS_7" fill="#000" d="M113.358 19.6541H107.46V12.2673H96.0652V19.6541H90.11V0.5H96.0652V7.28553H107.46V0.5H113.358V19.6541Z"/></mask><g mask="url(#Brahmosmask2)"><path id="BrahmosVector 13" fill="url(#Brahmospaint5_linear)" d="M89.1406 11.1219V20.4483H96.6194L103.702 12.6229C111.785 12.187 114.631 9.27146 115.044 7.86817V-0.700195H106.822V6.82807C106.079 6.67949 104.021 6.69995 97.9981 7.05655C91.9755 7.41315 89.2727 10.2469 89.1406 11.1219Z"/></g></g></g></g><g id="BrahmosGroup 20"><path id="BrahmosBRAHMOS_8" fill="url(#Brahmospaint6_linear)" d="M130.237 7.6291C130.657 8.3735 131.02 9.03201 131.325 9.60463C131.649 10.1582 131.926 10.6544 132.155 11.0934C132.403 11.5324 132.613 11.9333 132.785 12.2959C132.976 12.6586 133.157 13.0117 133.329 13.3553C133.482 13.0117 133.644 12.6681 133.816 12.3246C134.007 11.9619 134.217 11.5611 134.446 11.1221C134.694 10.664 134.971 10.1582 135.276 9.60463C135.601 9.0511 135.973 8.40213 136.393 7.65773L139.456 2.21785C139.8 1.60706 140.229 1.12033 140.745 0.757677C141.279 0.375931 141.938 0.185059 142.72 0.185059C143.465 0.185059 144.133 0.404562 144.724 0.84357C145.335 1.26349 145.774 1.922 146.041 2.8191L150.88 19.6541H144.982L143.178 12.9831C142.873 11.8951 142.615 10.9407 142.405 10.12C142.195 9.29924 142.014 8.49757 141.861 7.71499C141.537 8.38305 141.174 9.12745 140.773 9.9482C140.372 10.7499 139.847 11.771 139.199 13.0117L136.622 17.8217C136.374 18.2989 136.116 18.6806 135.849 18.9669C135.601 19.2342 135.343 19.4441 135.076 19.5968C134.808 19.7495 134.522 19.845 134.217 19.8831C133.911 19.9404 133.577 19.969 133.215 19.969C132.852 19.969 132.518 19.9404 132.213 19.8831C131.907 19.845 131.621 19.7495 131.354 19.5968C131.086 19.4441 130.819 19.2342 130.552 18.9669C130.304 18.6806 130.056 18.2989 129.808 17.8217L127.231 12.9831C126.887 12.3341 126.582 11.752 126.315 11.2366C126.047 10.7212 125.799 10.2631 125.57 9.86231C125.36 9.44239 125.169 9.06065 124.998 8.71707C124.845 8.3735 124.692 8.03948 124.539 7.71499C124.387 8.47848 124.205 9.28015 123.995 10.12C123.786 10.9407 123.537 11.8951 123.251 12.9831L121.447 19.6541H115.635L120.588 2.8191C120.856 1.922 121.295 1.26349 121.905 0.84357C122.516 0.404562 123.194 0.185059 123.938 0.185059C124.702 0.185059 125.341 0.366388 125.856 0.729046C126.391 1.0917 126.83 1.58797 127.174 2.21785L130.237 7.6291Z"/><g id="BrahmosMask Group_4"><mask id="Brahmosmask3" width="36" height="20" x="115" y="0" maskUnits="userSpaceOnUse" style="mask-type:alpha"><path id="BrahmosBRAHMOS_9" fill="#000" d="M130.246 7.6291C130.666 8.3735 131.029 9.03201 131.334 9.60463C131.659 10.1582 131.936 10.6544 132.165 11.0934C132.413 11.5324 132.623 11.9333 132.795 12.2959C132.985 12.6586 133.167 13.0117 133.339 13.3553C133.491 13.0117 133.653 12.6681 133.825 12.3246C134.016 11.9619 134.226 11.5611 134.455 11.1221C134.703 10.664 134.98 10.1582 135.285 9.60463C135.61 9.0511 135.982 8.40213 136.402 7.65773L139.466 2.21785C139.809 1.60706 140.239 1.12033 140.754 0.757677C141.288 0.375931 141.947 0.185059 142.73 0.185059C143.474 0.185059 144.142 0.404562 144.734 0.84357C145.344 1.26349 145.783 1.922 146.051 2.8191L150.889 19.6541H144.991L143.188 12.9831C142.882 11.8951 142.625 10.9407 142.415 10.12C142.205 9.29924 142.023 8.49757 141.871 7.71499C141.546 8.38305 141.183 9.12745 140.783 9.9482C140.382 10.7499 139.857 11.771 139.208 13.0117L136.631 17.8217C136.383 18.2989 136.125 18.6806 135.858 18.9669C135.61 19.2342 135.352 19.4441 135.085 19.5968C134.818 19.7495 134.532 19.845 134.226 19.8831C133.921 19.9404 133.587 19.969 133.224 19.969C132.861 19.969 132.527 19.9404 132.222 19.8831C131.917 19.845 131.63 19.7495 131.363 19.5968C131.096 19.4441 130.829 19.2342 130.561 18.9669C130.313 18.6806 130.065 18.2989 129.817 17.8217L127.24 12.9831C126.897 12.3341 126.591 11.752 126.324 11.2366C126.057 10.7212 125.809 10.2631 125.58 9.86231C125.37 9.44239 125.179 9.06065 125.007 8.71707C124.854 8.3735 124.702 8.03948 124.549 7.71499C124.396 8.47848 124.215 9.28015 124.005 10.12C123.795 10.9407 123.547 11.8951 123.26 12.9831L121.457 19.6541H115.645L120.598 2.8191C120.865 1.922 121.304 1.26349 121.915 0.84357C122.526 0.404562 123.203 0.185059 123.948 0.185059C124.711 0.185059 125.351 0.366388 125.866 0.729046C126.4 1.0917 126.839 1.58797 127.183 2.21785L130.246 7.6291Z"/></mask><g mask="url(#Brahmosmask3)"><path id="BrahmosVector 14" fill="url(#Brahmospaint7_linear)" d="M111.381 25.1523L109.512 -0.632496L127.622 -0.632496C130.793 1.00583 140.168 0.891131 144.185 -0.63251C148.572 -2.29639 144.185 2.8241 141.985 7.56667L139.545 22.1166L111.381 25.1523Z"/></g></g></g><g id="BrahmosGroup 19"><path id="BrahmosBRAHMOS_10" fill="url(#Brahmospaint8_linear)" d="M165.331 0.185059C169.988 0.185059 173.481 0.977181 175.81 2.56143C178.158 4.14567 179.331 6.6461 179.331 10.0627C179.331 13.4984 178.167 16.0084 175.838 17.5927C173.51 19.1769 170.007 19.969 165.331 19.969C160.635 19.969 157.123 19.1769 154.795 17.5927C152.485 16.0084 151.33 13.4984 151.33 10.0627C151.33 6.6461 152.495 4.14567 154.823 2.56143C157.152 0.977181 160.654 0.185059 165.331 0.185059ZM165.331 14.9872C166.82 14.9872 168.079 14.93 169.11 14.8155C170.141 14.6819 170.971 14.4337 171.601 14.0711C172.25 13.7084 172.718 13.2121 173.004 12.5822C173.29 11.9333 173.433 11.0934 173.433 10.0627C173.433 9.03201 173.29 8.20172 173.004 7.57184C172.718 6.92287 172.25 6.4266 171.601 6.08303C170.971 5.72037 170.141 5.48178 169.11 5.36726C168.079 5.23364 166.82 5.16684 165.331 5.16684C163.842 5.16684 162.582 5.23364 161.552 5.36726C160.521 5.48178 159.681 5.72037 159.032 6.08303C158.402 6.4266 157.944 6.92287 157.658 7.57184C157.371 8.20172 157.228 9.03201 157.228 10.0627C157.228 11.0934 157.371 11.9333 157.658 12.5822C157.944 13.2121 158.402 13.7084 159.032 14.0711C159.681 14.4337 160.521 14.6819 161.552 14.8155C162.582 14.93 163.842 14.9872 165.331 14.9872Z"/><g id="BrahmosMask Group_5"><mask id="Brahmosmask4" width="29" height="20" x="151" y="0" maskUnits="userSpaceOnUse" style="mask-type:alpha"><path id="BrahmosBRAHMOS_11" fill="#000" d="M165.337 0.185059C169.994 0.185059 173.487 0.977181 175.816 2.56143C178.164 4.14567 179.337 6.6461 179.337 10.0627C179.337 13.4984 178.173 16.0084 175.844 17.5927C173.516 19.1769 170.013 19.969 165.337 19.969C160.641 19.969 157.129 19.1769 154.801 17.5927C152.491 16.0084 151.336 13.4984 151.336 10.0627C151.336 6.6461 152.501 4.14567 154.829 2.56143C157.158 0.977181 160.661 0.185059 165.337 0.185059ZM165.337 14.9872C166.826 14.9872 168.086 14.93 169.116 14.8155C170.147 14.6819 170.977 14.4337 171.607 14.0711C172.256 13.7084 172.724 13.2121 173.01 12.5822C173.296 11.9333 173.44 11.0934 173.44 10.0627C173.44 9.03201 173.296 8.20172 173.01 7.57184C172.724 6.92287 172.256 6.4266 171.607 6.08303C170.977 5.72037 170.147 5.48178 169.116 5.36726C168.086 5.23364 166.826 5.16684 165.337 5.16684C163.848 5.16684 162.588 5.23364 161.558 5.36726C160.527 5.48178 159.687 5.72037 159.038 6.08303C158.408 6.4266 157.95 6.92287 157.664 7.57184C157.378 8.20172 157.234 9.03201 157.234 10.0627C157.234 11.0934 157.378 11.9333 157.664 12.5822C157.95 13.2121 158.408 13.7084 159.038 14.0711C159.687 14.4337 160.527 14.6819 161.558 14.8155C162.588 14.93 163.848 14.9872 165.337 14.9872Z"/></mask><g mask="url(#Brahmosmask4)"><path id="BrahmosVector 15" fill="url(#Brahmospaint9_linear)" d="M160.059 7.54596C155.217 6.6492 156.435 0.857482 157.649 -1.92628C175.36 -2.76703 175.136 0.315683 180.629 4.51932C185.023 7.88224 179.732 17.2797 176.537 21.5581C168.821 23.1274 153.479 24.9322 153.838 19.5964C154.196 14.2606 157.574 12.8519 159.218 12.8145C160.246 13.2816 163.803 13.801 169.812 12.1419C175.82 10.4829 165.813 8.38668 160.059 7.54596Z"/></g></g></g></g><defs><linearGradient id="Brahmospaint0_linear" x1="41.878" x2="41.878" y1=".5" y2="19.654" gradientUnits="userSpaceOnUse"><stop stop-color="#006674"/><stop offset=".516" stop-color="#009BB1"/><stop offset="1" stop-color="#005A66"/></linearGradient><linearGradient id="Brahmospaint1_linear" x1="41.946" x2="41.946" y1="-.322" y2="7.545" gradientUnits="userSpaceOnUse"><stop stop-color="#0BE2FF"/><stop offset="1" stop-color="#00ADFF"/></linearGradient><linearGradient id="Brahmospaint2_linear" x1="72.067" x2="72.067" y1=".185" y2="19.654" gradientUnits="userSpaceOnUse"><stop stop-color="#009280"/><stop offset=".575" stop-color="#00FFE0"/><stop offset="1" stop-color="#009482"/></linearGradient><linearGradient id="Brahmospaint3_linear" x1="58.499" x2="64.705" y1="14.635" y2="19.472" gradientUnits="userSpaceOnUse"><stop stop-color="#33FFCE"/><stop offset="1" stop-color="#3ED88E"/></linearGradient><linearGradient id="Brahmospaint4_linear" x1="101.734" x2="101.734" y1=".5" y2="19.654" gradientUnits="userSpaceOnUse"><stop stop-color="#852DFF"/><stop offset=".501" stop-color="#AA6DFF"/><stop offset="1" stop-color="#5800D3"/></linearGradient><linearGradient id="Brahmospaint5_linear" x1="102.092" x2="102.092" y1="-.7" y2="20.448" gradientUnits="userSpaceOnUse"><stop stop-color="#AA6DFF"/><stop offset="1" stop-color="#4500A5"/></linearGradient><linearGradient id="Brahmospaint6_linear" x1="133.258" x2="133.258" y1=".185" y2="19.969" gradientUnits="userSpaceOnUse"><stop stop-color="#FFC800"/><stop offset="1" stop-color="#FF0"/></linearGradient><linearGradient id="Brahmospaint7_linear" x1="135.771" x2="114.539" y1="1.395" y2="18.336" gradientUnits="userSpaceOnUse"><stop stop-color="#ECFF00"/><stop offset="1" stop-color="#F5C416"/></linearGradient><linearGradient id="Brahmospaint8_linear" x1="165.331" x2="165.331" y1=".185" y2="19.969" gradientUnits="userSpaceOnUse"><stop stop-color="#980315"/><stop offset="1" stop-color="#FF3D00"/></linearGradient><linearGradient id="Brahmospaint9_linear" x1="158.34" x2="175.404" y1="2.557" y2="18.097" gradientUnits="userSpaceOnUse"><stop stop-color="#F38842"/><stop offset="1" stop-color="#E32900"/></linearGradient></defs></svg>