<svg width="25" height="25" viewBox="0 0 25 25" fill="none" xmlns="http://www.w3.org/2000/svg">
<path d="M19.792 4.59937C20.3887 4.59937 20.961 4.83642 21.383 5.25838C21.8049 5.68033 22.042 6.25263 22.042 6.84937V18.3544C22.042 18.9511 21.8049 19.5234 21.383 19.9454C20.961 20.3673 20.3887 20.6044 19.792 20.6044H4.29199C3.99652 20.6044 3.70394 20.5462 3.43095 20.4331C3.15797 20.32 2.90993 20.1543 2.701 19.9454C2.49207 19.7364 2.32634 19.4884 2.21326 19.2154C2.10019 18.9424 2.04199 18.6498 2.04199 18.3544V6.84937C2.04199 6.25263 2.27905 5.68033 2.701 5.25838C3.12296 4.83642 3.69526 4.59937 4.29199 4.59937H19.792ZM19.792 6.09937H4.29199C4.09308 6.09937 3.90231 6.17838 3.76166 6.31904C3.62101 6.45969 3.54199 6.65045 3.54199 6.84937V18.3544C3.54199 18.7684 3.87799 19.1044 4.29199 19.1044H19.792C19.9909 19.1044 20.1817 19.0253 20.3223 18.8847C20.463 18.744 20.542 18.5533 20.542 18.3544V6.84937C20.542 6.65045 20.463 6.45969 20.3223 6.31904C20.1817 6.17838 19.9909 6.09937 19.792 6.09937ZM9.79199 13.0994C9.9909 13.0994 10.1817 13.1784 10.3223 13.319C10.463 13.4597 10.542 13.6505 10.542 13.8494V14.3424L10.534 14.4504C10.371 15.5634 9.43999 16.1004 8.04199 16.1004C6.64399 16.1004 5.71199 15.5634 5.54999 14.4504L5.54199 14.3404V13.8494C5.54199 13.6505 5.62101 13.4597 5.76166 13.319C5.90231 13.1784 6.09308 13.0994 6.29199 13.0994H9.79199ZM13.294 13.5954H17.792C17.982 13.5954 18.1649 13.6676 18.3038 13.7973C18.4426 13.9271 18.5271 14.1047 18.54 14.2942C18.553 14.4838 18.4935 14.6713 18.3736 14.8187C18.2536 14.9661 18.0822 15.0625 17.894 15.0884L17.792 15.0954H13.294C13.104 15.0953 12.9211 15.0231 12.7822 14.8934C12.6433 14.7637 12.5589 14.5861 12.546 14.3965C12.533 14.2069 12.5925 14.0195 12.7124 13.8721C12.8323 13.7247 13.0037 13.6283 13.192 13.6024L13.294 13.5954H17.792H13.294ZM8.04199 9.10137C8.43982 9.10137 8.82135 9.2594 9.10265 9.5407C9.38396 9.82201 9.54199 10.2035 9.54199 10.6014C9.54199 10.9992 9.38396 11.3807 9.10265 11.662C8.82135 11.9433 8.43982 12.1014 8.04199 12.1014C7.64417 12.1014 7.26264 11.9433 6.98133 11.662C6.70003 11.3807 6.54199 10.9992 6.54199 10.6014C6.54199 10.2035 6.70003 9.82201 6.98133 9.5407C7.26264 9.2594 7.64417 9.10137 8.04199 9.10137ZM13.294 10.0994H17.792C17.982 10.0994 18.1649 10.1716 18.3038 10.3013C18.4426 10.4311 18.5271 10.6087 18.54 10.7982C18.553 10.9878 18.4935 11.1753 18.3736 11.3227C18.2536 11.4701 18.0822 11.5665 17.894 11.5924L17.792 11.5994H13.294C13.104 11.5993 12.9211 11.5271 12.7822 11.3974C12.6433 11.2677 12.5589 11.0901 12.546 10.9005C12.533 10.7109 12.5925 10.5235 12.7124 10.3761C12.8323 10.2287 13.0037 10.1323 13.192 10.1064L13.294 10.0994H17.792H13.294Z" fill="#24FFFF"/>
</svg>
