<svg width="25" height="25" viewBox="0 0 25 25" fill="none" xmlns="http://www.w3.org/2000/svg">
<path d="M15.292 2.59937C15.4732 2.59937 15.6483 2.66501 15.7849 2.78413C15.9215 2.90326 16.0103 3.06781 16.035 3.24737L16.042 3.34937V5.67437C16.7624 5.82183 17.4237 6.17764 17.9437 6.69764C18.4637 7.21764 18.8195 7.87891 18.967 8.59937H21.292C21.482 8.59942 21.6649 8.67161 21.8038 8.80134C21.9426 8.93107 22.0271 9.10866 22.04 9.29825C22.053 9.48783 21.9935 9.67526 21.8736 9.82266C21.7536 9.97007 21.5822 10.0665 21.394 10.0924L21.292 10.0994H19.042V11.8494H21.292C21.4732 11.8494 21.6483 11.915 21.7849 12.0341C21.9215 12.1533 22.0103 12.3178 22.035 12.4974L22.042 12.5994C22.042 12.7806 21.9763 12.9557 21.8572 13.0923C21.7381 13.2289 21.5735 13.3177 21.394 13.3424L21.292 13.3494H19.042V15.0994H21.292C21.4732 15.0994 21.6483 15.165 21.7849 15.2841C21.9215 15.4033 22.0103 15.5678 22.035 15.7474L22.042 15.8494C22.042 16.0306 21.9763 16.2057 21.8572 16.3423C21.7381 16.4789 21.5735 16.5677 21.394 16.5924L21.292 16.5994H18.967C18.8197 17.32 18.464 17.9815 17.944 18.5017C17.4239 19.0219 16.7626 19.3778 16.042 19.5254V21.8504C16.0419 22.0404 15.9697 22.2233 15.84 22.3622C15.7103 22.501 15.5327 22.5854 15.3431 22.5984C15.1535 22.6113 14.9661 22.5518 14.8187 22.4319C14.6713 22.312 14.5749 22.1406 14.549 21.9524L14.542 21.8504V19.5994H12.791L12.792 21.8504C12.792 22.0316 12.7263 22.2067 12.6072 22.3433C12.4881 22.4799 12.3235 22.5687 12.144 22.5934L12.042 22.5994C11.8608 22.5994 11.6857 22.5337 11.5491 22.4146C11.4125 22.2955 11.3236 22.1309 11.299 21.9514L11.292 21.8494L11.291 19.5984H9.54199V21.8494C9.54198 22.0306 9.47635 22.2057 9.35723 22.3423C9.2381 22.4789 9.07355 22.5677 8.89399 22.5924L8.79199 22.5994C8.61075 22.5994 8.43565 22.5337 8.29906 22.4146C8.16247 22.2955 8.07364 22.1309 8.04899 21.9514L8.04199 21.8494V19.5244C7.32154 19.3769 6.66027 19.0211 6.14027 18.5011C5.62027 17.9811 5.26445 17.3198 5.11699 16.5994H2.79199C2.60197 16.5993 2.41905 16.5271 2.2802 16.3974C2.14135 16.2677 2.05692 16.0901 2.04397 15.9005C2.03101 15.7109 2.09051 15.5235 2.21042 15.3761C2.33034 15.2287 2.50174 15.1323 2.68999 15.1064L2.79199 15.0994L5.04199 15.0984V13.3484L2.79199 13.3494C2.61075 13.3494 2.43565 13.2837 2.29906 13.1646C2.16247 13.0455 2.07364 12.8809 2.04899 12.7014L2.04199 12.5994C2.042 12.4181 2.10763 12.243 2.22676 12.1064C2.34588 11.9698 2.51044 11.881 2.68999 11.8564L2.79199 11.8494L5.04199 11.8484V10.0984L2.79199 10.0994C2.61075 10.0994 2.43565 10.0337 2.29906 9.9146C2.16247 9.79547 2.07364 9.63092 2.04899 9.45137L2.04199 9.34937C2.042 9.16813 2.10763 8.99302 2.22676 8.85643C2.34588 8.71985 2.51044 8.63101 2.68999 8.60637L2.79199 8.59937L5.11699 8.59837C5.26463 7.8781 5.62052 7.21704 6.14051 6.69723C6.66049 6.17742 7.32167 5.82175 8.04199 5.67437V3.34937C8.04205 3.15934 8.11424 2.97642 8.24397 2.83757C8.37369 2.69872 8.55129 2.61429 8.74087 2.60134C8.93045 2.58839 9.11788 2.64788 9.26529 2.7678C9.4127 2.88771 9.50909 3.05912 9.53499 3.24737L9.54199 3.34937V5.59837H11.291L11.292 3.34937C11.292 3.16813 11.3576 2.99302 11.4768 2.85643C11.5959 2.71985 11.7604 2.63101 11.94 2.60637L12.042 2.59937C12.2232 2.59937 12.3983 2.66501 12.5349 2.78413C12.6715 2.90326 12.7603 3.06781 12.785 3.24737L12.792 3.34937L12.791 5.59837H14.542V3.34937C14.542 3.18528 14.5957 3.02571 14.6951 2.89512C14.7944 2.76453 14.9339 2.67012 15.092 2.62637L15.19 2.60637L15.292 2.59937ZM15.292 7.09937H8.79199C8.19526 7.09937 7.62296 7.33642 7.201 7.75838C6.77905 8.18033 6.54199 8.75263 6.54199 9.34937V15.8494C6.54199 16.4461 6.77905 17.0184 7.201 17.4404C7.62296 17.8623 8.19526 18.0994 8.79199 18.0994H15.292C15.8887 18.0994 16.461 17.8623 16.883 17.4404C17.3049 17.0184 17.542 16.4461 17.542 15.8494V9.34937C17.542 8.75263 17.3049 8.18033 16.883 7.75838C16.461 7.33642 15.8887 7.09937 15.292 7.09937ZM12.047 9.60437C12.8426 9.60437 13.6057 9.92044 14.1683 10.483C14.7309 11.0457 15.047 11.8087 15.047 12.6044C15.047 13.4 14.7309 14.1631 14.1683 14.7257C13.6057 15.2883 12.8426 15.6044 12.047 15.6044C11.2513 15.6044 10.4883 15.2883 9.92567 14.7257C9.36306 14.1631 9.04699 13.4 9.04699 12.6044C9.04699 11.8087 9.36306 11.0457 9.92567 10.483C10.4883 9.92044 11.2513 9.60437 12.047 9.60437ZM12.047 11.1044C11.6492 11.1044 11.2676 11.2624 10.9863 11.5437C10.705 11.825 10.547 12.2065 10.547 12.6044C10.547 13.0022 10.705 13.3837 10.9863 13.665C11.2676 13.9463 11.6492 14.1044 12.047 14.1044C12.4448 14.1044 12.8263 13.9463 13.1077 13.665C13.389 13.3837 13.547 13.0022 13.547 12.6044C13.547 12.2065 13.389 11.825 13.1077 11.5437C12.8263 11.2624 12.4448 11.1044 12.047 11.1044Z" fill="#24FFFF"/>
</svg>
