<svg width="25" height="25" viewBox="0 0 25 25" fill="none" xmlns="http://www.w3.org/2000/svg">
<g clip-path="url(#clip0)">
<path d="M10.542 12.9742C10.542 13.2709 10.4541 13.5609 10.2892 13.8076C10.1244 14.0542 9.89015 14.2465 9.61606 14.36C9.34198 14.4735 9.04037 14.5033 8.7494 14.4454C8.45843 14.3875 8.19116 14.2446 7.98138 14.0349C7.7716 13.8251 7.62874 13.5578 7.57086 13.2668C7.51298 12.9759 7.54269 12.6743 7.65622 12.4002C7.76975 12.1261 7.96201 11.8918 8.20868 11.727C8.45536 11.5622 8.74537 11.4742 9.04204 11.4742C9.43986 11.4742 9.82139 11.6322 10.1027 11.9135C10.384 12.1948 10.542 12.5764 10.542 12.9742ZM15.042 11.4742C14.7454 11.4742 14.4554 11.5622 14.2087 11.727C13.962 11.8918 13.7698 12.1261 13.6562 12.4002C13.5427 12.6743 13.513 12.9759 13.5709 13.2668C13.6287 13.5578 13.7716 13.8251 13.9814 14.0349C14.1912 14.2446 14.4584 14.3875 14.7494 14.4454C15.0404 14.5033 15.342 14.4735 15.6161 14.36C15.8902 14.2465 16.1244 14.0542 16.2892 13.8076C16.4541 13.5609 16.542 13.2709 16.542 12.9742C16.542 12.5764 16.384 12.1948 16.1027 11.9135C15.8214 11.6322 15.4399 11.4742 15.042 11.4742ZM23.0139 18.3699C21.4151 19.7595 19.2714 20.8116 16.8149 21.4121C16.6682 21.4481 16.5177 21.4663 16.3667 21.4664C16.0195 21.4659 15.6793 21.3685 15.3846 21.185C15.0898 21.0015 14.8522 20.7392 14.6985 20.4279L13.566 18.1629C13.0647 18.2031 12.5555 18.2242 12.042 18.2242C11.5286 18.2242 11.0194 18.2031 10.518 18.1629L9.38554 20.4278C9.23189 20.7392 8.99428 21.0014 8.69952 21.1849C8.40476 21.3684 8.06457 21.4659 7.71735 21.4664C7.56634 21.4662 7.41588 21.448 7.26923 21.412C4.8127 20.8116 2.6691 19.7595 1.07029 18.3698C0.797014 18.1326 0.597814 17.8218 0.496501 17.4744C0.395188 17.1271 0.396047 16.7579 0.498977 16.411L3.68404 5.79407C3.76376 5.52666 3.90234 5.28048 4.08962 5.07361C4.27689 4.86674 4.5081 4.70443 4.76629 4.59857C5.72755 4.20489 6.72173 3.89694 7.73723 3.67832C8.18949 3.57913 8.66247 3.65085 9.06501 3.87965C9.46754 4.10846 9.77114 4.47816 9.91729 4.91751L10.6213 7.02932C11.0905 6.99388 11.565 6.9742 12.042 6.9742C12.519 6.9742 12.9935 6.99398 13.4628 7.02923L14.1669 4.91741C14.3129 4.47804 14.6165 4.10828 15.019 3.87943C15.4215 3.65058 15.8945 3.57884 16.3468 3.67804C17.3623 3.89676 18.3566 4.20477 19.318 4.59848C19.5761 4.70438 19.8073 4.86673 19.9946 5.07363C20.1818 5.28054 20.3204 5.52673 20.4 5.79416L23.5851 16.411C23.6881 16.7579 23.6889 17.1271 23.5876 17.4745C23.4863 17.8218 23.2872 18.1327 23.0139 18.3699ZM21.3596 16.8226L18.2965 6.61223C17.6124 6.34166 16.9097 6.12069 16.1939 5.95101L15.7301 7.34273C16.1155 7.42288 16.4913 7.51551 16.8546 7.6206C16.9978 7.66055 17.1316 7.72848 17.2483 7.82044C17.3651 7.91241 17.4625 8.02661 17.5348 8.15642C17.6072 8.28624 17.6531 8.42911 17.67 8.57678C17.6868 8.72445 17.6742 8.874 17.6329 9.01677C17.5916 9.15955 17.5224 9.29272 17.4294 9.40861C17.3363 9.52449 17.2212 9.62079 17.0907 9.69193C16.9602 9.76308 16.8169 9.80766 16.6691 9.8231C16.5213 9.83855 16.3719 9.82455 16.2295 9.78191C14.8662 9.40334 13.4569 9.21565 12.042 9.2242C10.6272 9.21568 9.21792 9.40341 7.8546 9.78201C7.56828 9.86393 7.26116 9.82898 7.00057 9.68482C6.73998 9.54066 6.54718 9.29905 6.46444 9.01297C6.38169 8.72689 6.41576 8.41967 6.55917 8.15866C6.70258 7.89766 6.94363 7.70416 7.22948 7.6206C7.60064 7.51367 7.97576 7.42098 8.35401 7.34273L7.89013 5.95101C7.17433 6.12067 6.47167 6.34165 5.7876 6.61223L2.72451 16.8225C3.97176 17.851 5.61576 18.6513 7.5082 19.1513L8.17532 17.8171C7.68043 17.7092 7.19149 17.5756 6.71048 17.4168C6.42732 17.3227 6.19317 17.1199 6.05951 16.8531C5.92586 16.5864 5.90365 16.2774 5.99779 15.9943C6.09192 15.7111 6.29469 15.4769 6.56147 15.3433C6.82825 15.2096 7.1372 15.1874 7.42035 15.2816C8.7832 15.7347 10.3814 15.9742 12.042 15.9742C13.7027 15.9742 15.3008 15.7347 16.6637 15.2816C16.8039 15.235 16.9519 15.2164 17.0993 15.227C17.2467 15.2376 17.3905 15.2771 17.5226 15.3433C17.6547 15.4095 17.7725 15.5011 17.8692 15.6128C17.9659 15.7245 18.0396 15.8541 18.0862 15.9943C18.1328 16.1345 18.1514 16.2825 18.1408 16.4299C18.1302 16.5772 18.0907 16.7211 18.0245 16.8532C17.9583 16.9853 17.8668 17.103 17.7551 17.1997C17.6434 17.2965 17.5137 17.3702 17.3735 17.4168C16.8925 17.5756 16.4036 17.7092 15.9088 17.8171L16.5759 19.1514C18.4684 18.6513 20.1123 17.8511 21.3596 16.8226Z" fill="#24FFFF"/>
</g>
<defs>
<clipPath id="clip0">
<rect width="24" height="24" fill="white" transform="translate(0.0419922 0.599365)"/>
</clipPath>
</defs>
</svg>
