<svg xmlns="http://www.w3.org/2000/svg" width="25" height="25" fill="none" viewBox="0 0 25 25"><path fill="#24FFFF" d="M19.042 18.5994H5.04199C4.48971 18.5994 4.04199 19.0471 4.04199 19.5994C4.04199 20.1516 4.48971 20.5994 5.04199 20.5994H19.042C19.5943 20.5994 20.042 20.1516 20.042 19.5994C20.042 19.0471 19.5943 18.5994 19.042 18.5994Z"/><path fill="#24FFFF" d="M4.04199 17.5994V19.5994C4.04199 20.1517 4.48971 20.5994 5.04199 20.5994C5.59428 20.5994 6.04199 20.1517 6.04199 19.5994V17.5994C6.04199 17.0471 5.59428 16.5994 5.04199 16.5994C4.48971 16.5994 4.04199 17.0471 4.04199 17.5994Z"/><path fill="#24FFFF" d="M18.042 17.5994V19.5994C18.042 20.1517 18.4897 20.5994 19.042 20.5994C19.5943 20.5994 20.042 20.1517 20.042 19.5994V17.5994C20.042 17.0471 19.5943 16.5994 19.042 16.5994C18.4897 16.5994 18.042 17.0471 18.042 17.5994Z"/><path fill="#24FFFF" d="M12.0419 15.5994C11.8346 15.6009 11.6319 15.538 11.4619 15.4194L7.46194 12.5994C7.24636 12.4464 7.10009 12.2144 7.05511 11.9539C7.01014 11.6934 7.07012 11.4257 7.22194 11.2094C7.29773 11.1012 7.39419 11.0091 7.50575 10.9385C7.61731 10.8678 7.74176 10.8199 7.87193 10.7976C8.00209 10.7753 8.13539 10.779 8.26412 10.8085C8.39285 10.8379 8.51446 10.8926 8.62194 10.9694L12.0419 13.3594L15.4419 10.7994C15.6541 10.6402 15.9208 10.5719 16.1834 10.6094C16.4459 10.6469 16.6828 10.7872 16.8419 10.9994C17.0011 11.2115 17.0694 11.4782 17.0319 11.7408C16.9944 12.0033 16.8541 12.2402 16.6419 12.3994L12.6419 15.3994C12.4688 15.5292 12.2583 15.5994 12.0419 15.5994Z"/><path fill="#24FFFF" d="M12.042 13.5994C11.7768 13.5994 11.5224 13.494 11.3349 13.3065C11.1473 13.1189 11.042 12.8646 11.042 12.5994V4.59937C11.042 4.33415 11.1473 4.07979 11.3349 3.89226C11.5224 3.70472 11.7768 3.59937 12.042 3.59937C12.3072 3.59937 12.5616 3.70472 12.7491 3.89226C12.9366 4.07979 13.042 4.33415 13.042 4.59937V12.5994C13.042 12.8646 12.9366 13.1189 12.7491 13.3065C12.5616 13.494 12.3072 13.5994 12.042 13.5994Z"/></svg>