<svg width="25" height="25" viewBox="0 0 25 25" fill="none" xmlns="http://www.w3.org/2000/svg">
<g clip-path="url(#clip0)">
<path d="M2.28695 23.5986C2.14795 23.5982 2.01038 23.5705 1.88211 23.5169C1.75383 23.4634 1.63737 23.3851 1.53935 23.2865C1.44134 23.1879 1.3637 23.071 1.31087 22.9424C1.25804 22.8139 1.23106 22.6761 1.23145 22.5371V2.66013C1.23145 2.07363 1.70395 1.59863 2.28695 1.59863H22.1764C22.7589 1.59863 23.2314 2.07363 23.2314 2.66013V22.5371C23.2318 22.6761 23.2049 22.8139 23.152 22.9424C23.0992 23.071 23.0216 23.1879 22.9235 23.2865C22.8255 23.3851 22.7091 23.4634 22.5808 23.5169C22.4525 23.5705 22.315 23.5982 22.1759 23.5986H2.28645H2.28695Z" stroke="#24FFFF" stroke-width="2" stroke-linecap="round" stroke-linejoin="round"/>
<path fill-rule="evenodd" clip-rule="evenodd" d="M19.562 9.54167H17.128C16.8039 9.54167 16.493 9.67042 16.2639 9.89959C16.0347 10.1288 15.906 10.4396 15.906 10.7637V13.2087H19.562L19.027 16.8747H15.906V23.5982H11.8845V16.8747H8.56445V13.2092H11.842L11.8845 9.72967L11.8725 8.48267C11.8684 8.06139 11.9479 7.64349 12.1064 7.25312C12.2648 6.86274 12.499 6.50764 12.7955 6.20832C13.092 5.909 13.4448 5.67141 13.8337 5.50927C14.2225 5.34712 14.6397 5.26365 15.061 5.26367H19.562V9.54167Z" fill="#24FFFF"/>
</g>
<defs>
<clipPath id="clip0">
<rect width="24" height="24" fill="white" transform="translate(0.231689 0.599365)"/>
</clipPath>
</defs>
</svg>
