<svg xmlns="http://www.w3.org/2000/svg" width="25" height="25" fill="none" viewBox="0 0 25 25"><g clip-path="url(#clip0)"><path fill="#24FFFF" d="M12.2317 0.599365C8.97519 0.599365 8.56569 0.614365 7.28619 0.671365C6.00669 0.731365 5.13519 0.932365 4.37169 1.22937C3.57083 1.53059 2.84543 2.0031 2.24619 2.61387C1.6358 3.21341 1.16335 3.93872 0.861689 4.73937C0.564689 5.50137 0.362189 6.37436 0.303689 7.64936C0.246689 8.93186 0.231689 9.33987 0.231689 12.6009C0.231689 15.8589 0.246689 16.2669 0.303689 17.5464C0.363689 18.8244 0.564689 19.6959 0.861689 20.4594C1.16919 21.2484 1.57869 21.9174 2.24619 22.5849C2.91219 23.2524 3.58119 23.6634 4.37019 23.9694C5.13519 24.2664 6.00519 24.4689 7.28319 24.5274C8.56419 24.5844 8.97219 24.5994 12.2317 24.5994C15.4912 24.5994 15.8977 24.5844 17.1787 24.5274C18.4552 24.4674 19.3297 24.2664 20.0932 23.9694C20.8935 23.668 21.6184 23.1955 22.2172 22.5849C22.8847 21.9174 23.2942 21.2484 23.6017 20.4594C23.8972 19.6959 24.0997 18.8244 24.1597 17.5464C24.2167 16.2669 24.2317 15.8589 24.2317 12.5994C24.2317 9.33986 24.2167 8.93187 24.1597 7.65087C24.0997 6.37437 23.8972 5.50137 23.6017 4.73937C23.3001 3.9387 22.8276 3.21338 22.2172 2.61387C21.6181 2.00288 20.8927 1.53033 20.0917 1.22937C19.3267 0.932365 18.4537 0.729865 17.1772 0.671365C15.8962 0.614365 15.4897 0.599365 12.2287 0.599365H12.2332H12.2317ZM11.1562 2.76237H12.2332C15.4372 2.76237 15.8167 2.77287 17.0812 2.83137C18.2512 2.88387 18.8872 3.08037 19.3102 3.24387C19.8697 3.46137 20.2702 3.72237 20.6902 4.14237C21.1102 4.56237 21.3697 4.96137 21.5872 5.52237C21.7522 5.94387 21.9472 6.57987 21.9997 7.74987C22.0582 9.01437 22.0702 9.39387 22.0702 12.5964C22.0702 15.7989 22.0582 16.1799 21.9997 17.4444C21.9472 18.6144 21.7507 19.2489 21.5872 19.6719C21.3948 20.1929 21.0877 20.664 20.6887 21.0504C20.2687 21.4704 19.8697 21.7299 19.3087 21.9474C18.8887 22.1124 18.2527 22.3074 17.0812 22.3614C15.8167 22.4184 15.4372 22.4319 12.2332 22.4319C9.02919 22.4319 8.64819 22.4184 7.38369 22.3614C6.21369 22.3074 5.57919 22.1124 5.15619 21.9474C4.63494 21.7552 4.16338 21.4487 3.77619 21.0504C3.37682 20.6634 3.06927 20.1919 2.87619 19.6704C2.71269 19.2489 2.51619 18.6129 2.46369 17.4429C2.40669 16.1784 2.39469 15.7989 2.39469 12.5934C2.39469 9.38937 2.40669 9.01136 2.46369 7.74687C2.51769 6.57687 2.71269 5.94087 2.87769 5.51787C3.09519 4.95837 3.35619 4.55787 3.77619 4.13787C4.19619 3.71787 4.59519 3.45837 5.15619 3.24087C5.57919 3.07587 6.21369 2.88087 7.38369 2.82687C8.49069 2.77587 8.91969 2.76087 11.1562 2.75937V2.76237ZM18.6382 4.75436C18.4491 4.75436 18.2618 4.79161 18.0871 4.86398C17.9124 4.93635 17.7537 5.04242 17.62 5.17613C17.4862 5.30985 17.3802 5.46859 17.3078 5.6433C17.2354 5.81801 17.1982 6.00526 17.1982 6.19437C17.1982 6.38347 17.2354 6.57072 17.3078 6.74543C17.3802 6.92014 17.4862 7.07888 17.62 7.2126C17.7537 7.34632 17.9124 7.45238 18.0871 7.52475C18.2618 7.59712 18.4491 7.63437 18.6382 7.63437C19.0201 7.63437 19.3864 7.48265 19.6564 7.2126C19.9265 6.94255 20.0782 6.57628 20.0782 6.19437C20.0782 5.81245 19.9265 5.44618 19.6564 5.17613C19.3864 4.90608 19.0201 4.75437 18.6382 4.75436ZM12.2332 6.43737C11.4158 6.42461 10.604 6.57459 9.84516 6.87858C9.08628 7.18256 8.39546 7.63447 7.81292 8.208C7.23037 8.78153 6.76774 9.46522 6.45195 10.2193C6.13617 10.9733 5.97354 11.7826 5.97354 12.6001C5.97354 13.4176 6.13617 14.2269 6.45195 14.981C6.76774 15.735 7.23037 16.4187 7.81292 16.9922C8.39546 17.5658 9.08628 18.0177 9.84516 18.3217C10.604 18.6256 11.4158 18.7756 12.2332 18.7629C13.851 18.7376 15.394 18.0772 16.5292 16.9242C17.6643 15.7712 18.3005 14.2181 18.3005 12.6001C18.3005 10.9821 17.6643 9.42898 16.5292 8.27599C15.394 7.123 13.851 6.46261 12.2332 6.43737ZM12.2332 8.59887C13.2942 8.59887 14.3117 9.02035 15.062 9.77058C15.8122 10.5208 16.2337 11.5384 16.2337 12.5994C16.2337 13.6604 15.8122 14.6779 15.062 15.4281C14.3117 16.1784 13.2942 16.5999 12.2332 16.5999C11.1722 16.5999 10.1546 16.1784 9.40441 15.4281C8.65417 14.6779 8.23269 13.6604 8.23269 12.5994C8.23269 11.5384 8.65417 10.5208 9.40441 9.77058C10.1546 9.02035 11.1722 8.59887 12.2332 8.59887Z"/></g><defs><clipPath id="clip0"><rect width="24" height="24" fill="#fff" transform="translate(0.231689 0.599365)"/></clipPath></defs></svg>