<svg xmlns="http://www.w3.org/2000/svg" width="25" height="25" fill="none" viewBox="0 0 25 25"><path fill="#24FFFF" d="M18.6139 20.5231H17.2619C16.8325 20.5231 16.4206 20.3525 16.117 20.0489C15.8133 19.7452 15.6428 19.3334 15.6428 18.904V14.5565C15.65 14.386 15.5985 14.2182 15.4968 14.0812C15.3951 13.9441 15.2494 13.8461 15.0841 13.8036C14.988 13.789 14.8898 13.7951 14.7962 13.8217C14.7027 13.8482 14.6159 13.8945 14.5417 13.9574C14.4654 14.0222 14.4041 14.1028 14.3622 14.1937C14.3202 14.2846 14.2986 14.3836 14.2989 14.4837V18.904C14.2989 19.3334 14.1283 19.7452 13.8246 20.0489C13.521 20.3525 13.1091 20.5231 12.6797 20.5231H11.3277C10.8983 20.5231 10.4864 20.3525 10.1828 20.0489C9.87914 19.7452 9.70855 19.3334 9.70855 18.904V14.4837C9.70855 13.088 10.263 11.7495 11.2498 10.7627C12.2367 9.77582 13.5752 9.2214 14.9708 9.2214C16.3664 9.2214 17.7049 9.77582 18.6918 10.7627C19.6786 11.7495 20.2331 13.088 20.2331 14.4837V18.904C20.2331 19.3334 20.0625 19.7452 19.7588 20.0489C19.4552 20.3525 19.0433 20.5231 18.6139 20.5231ZM14.9708 12.1764C15.0975 12.1684 15.2246 12.1684 15.3513 12.1764C15.8948 12.2809 16.3842 12.5735 16.7336 13.0028C17.0829 13.4321 17.27 13.9707 17.2619 14.5241V18.904H18.6139V14.4837C18.6139 13.5174 18.2301 12.5908 17.5469 11.9076C16.8637 11.2244 15.937 10.8406 14.9708 10.8406C14.0046 10.8406 13.078 11.2244 12.3947 11.9076C11.7115 12.5908 11.3277 13.5174 11.3277 14.4837V18.904H12.6797V14.4837C12.6797 13.8745 12.9206 13.2901 13.3498 12.8579C13.779 12.4256 14.3617 12.1806 14.9708 12.1764ZM7.27982 20.5231H5.66066C5.23123 20.5231 4.8194 20.3525 4.51574 20.0489C4.21209 19.7452 4.04151 19.3334 4.04151 18.904V10.8082C4.04151 10.3787 4.21209 9.96691 4.51574 9.66326C4.8194 9.35961 5.23123 9.18902 5.66066 9.18902H7.27982C7.70924 9.18902 8.12108 9.35961 8.42473 9.66326C8.72838 9.96691 8.89897 10.3787 8.89897 10.8082V18.904C8.89897 19.3334 8.72838 19.7452 8.42473 20.0489C8.12108 20.3525 7.70924 20.5231 7.27982 20.5231ZM5.66066 10.8082V18.904H7.27982V10.8082H5.66066ZM6.47024 8.37944C5.98988 8.37944 5.52031 8.237 5.12091 7.97013C4.7215 7.70325 4.41021 7.32394 4.22638 6.88014C4.04256 6.43635 3.99446 5.94801 4.08817 5.47689C4.18189 5.00576 4.4132 4.573 4.75286 4.23333C5.09253 3.89367 5.52529 3.66235 5.99642 3.56864C6.46754 3.47493 6.95588 3.52302 7.39967 3.70685C7.84347 3.89068 8.22278 4.20197 8.48966 4.60138C8.75653 5.00078 8.89897 5.47035 8.89897 5.95071C8.89897 6.59485 8.64309 7.21261 8.18761 7.66808C7.73214 8.12356 7.11438 8.37944 6.47024 8.37944ZM6.47024 5.14113C6.31012 5.14113 6.1536 5.18861 6.02046 5.27757C5.88733 5.36653 5.78356 5.49296 5.72229 5.6409C5.66101 5.78883 5.64498 5.95161 5.67622 6.10865C5.70745 6.26569 5.78456 6.40994 5.89778 6.52317C6.011 6.63639 6.15526 6.71349 6.3123 6.74473C6.46934 6.77597 6.63212 6.75993 6.78005 6.69866C6.92798 6.63738 7.05442 6.53362 7.14338 6.40048C7.23234 6.26735 7.27982 6.11083 7.27982 5.95071C7.27982 5.73599 7.19452 5.53007 7.0427 5.37825C6.89087 5.22642 6.68495 5.14113 6.47024 5.14113Z"/></svg>