<svg xmlns="http://www.w3.org/2000/svg" width="25" height="25" fill="none" viewBox="0 0 25 25"><g clip-path="url(#clip0)"><path fill="#24FFFF" d="M6.43269 21.5994H2.07894V7.57887H6.43269V21.5994ZM4.25319 5.66637C2.86119 5.66637 1.73169 4.51287 1.73169 3.12087C1.73169 2.45212 1.99735 1.81077 2.47022 1.3379C2.94309 0.865023 3.58445 0.599365 4.25319 0.599365C4.92193 0.599365 5.56329 0.865023 6.03616 1.3379C6.50903 1.81077 6.77469 2.45212 6.77469 3.12087C6.77469 4.51287 5.64519 5.66637 4.25319 5.66637ZM22.7272 21.5994H18.3832V14.7744C18.3832 13.1476 18.3502 11.0619 16.1197 11.0619C13.8562 11.0619 13.5089 12.8289 13.5089 14.6574V21.5994H9.15969V7.57887H13.3349V9.49137H13.3957C13.9769 8.38962 15.3967 7.22712 17.5147 7.22712C21.9209 7.22712 22.7309 10.1289 22.7309 13.8976V21.5994H22.7272Z"/></g><defs><clipPath id="clip0"><rect width="24" height="24" fill="#fff" transform="translate(0.231689 0.599365)"/></clipPath></defs></svg>