<svg xmlns="http://www.w3.org/2000/svg" width="25" height="25" fill="none" viewBox="0 0 25 25"><path stroke="#24FFFF" stroke-linecap="round" stroke-linejoin="round" stroke-width="2" d="M12.2317 13.5994C13.8885 13.5994 15.2317 12.2562 15.2317 10.5994C15.2317 8.94251 13.8885 7.59937 12.2317 7.59937C10.5748 7.59937 9.23169 8.94251 9.23169 10.5994C9.23169 12.2562 10.5748 13.5994 12.2317 13.5994Z"/><path stroke="#24FFFF" stroke-linecap="round" stroke-linejoin="round" stroke-width="2" d="M12.2317 2.59937C10.11 2.59937 8.07513 3.44222 6.57484 4.94251C5.07454 6.4428 4.23169 8.47763 4.23169 10.5994C4.23169 12.4914 4.63369 13.7294 5.73169 15.0994L12.2317 22.5994L18.7317 15.0994C19.8297 13.7294 20.2317 12.4914 20.2317 10.5994C20.2317 8.47763 19.3888 6.4428 17.8885 4.94251C16.3883 3.44222 14.3534 2.59937 12.2317 2.59937V2.59937Z"/></svg>