<svg width="25" height="25" viewBox="0 0 25 25" fill="none" xmlns="http://www.w3.org/2000/svg">
<path d="M15.9258 3.63748C16.2426 3.63748 16.5464 3.76333 16.7705 3.98735C16.9945 4.21138 17.1204 4.51522 17.1204 4.83203V20.3667C17.1204 20.6835 16.9945 20.9874 16.7705 21.2114C16.5464 21.4354 16.2426 21.5613 15.9258 21.5613H8.15845C7.84163 21.5613 7.53779 21.4354 7.31377 21.2114C7.08975 20.9874 6.96389 20.6835 6.96389 20.3667V4.83203C6.96389 4.51522 7.08975 4.21138 7.31377 3.98735C7.53779 3.76333 7.84163 3.63748 8.15845 3.63748H15.9258ZM8.15845 2.14292C7.44525 2.14292 6.76127 2.42624 6.25696 2.93054C5.75265 3.43485 5.46934 4.11884 5.46934 4.83203V20.3667C5.46934 21.0799 5.75265 21.7639 6.25696 22.2682C6.76127 22.7725 7.44525 23.0558 8.15845 23.0558H15.9258C16.639 23.0558 17.323 22.7725 17.8273 22.2682C18.3316 21.7639 18.6149 21.0799 18.6149 20.3667V4.83203C18.6149 4.11884 18.3316 3.43485 17.8273 2.93054C17.323 2.42624 16.639 2.14292 15.9258 2.14292H8.15845Z" fill="#24FFFF" stroke="#24FFFF" stroke-width="0.2"/>
<path d="M12.0421 20.3667C12.3855 20.3667 12.7147 20.2303 12.9575 19.9875C13.2003 19.7448 13.3367 19.4155 13.3367 19.0721C13.3367 18.7288 13.2003 18.3995 12.9575 18.1568C12.7147 17.914 12.3855 17.7776 12.0421 17.7776C11.6988 17.7776 11.3695 17.914 11.1267 18.1568C10.8839 18.3995 10.7476 18.7288 10.7476 19.0721C10.7476 19.4155 10.8839 19.7448 11.1267 19.9875C11.3695 20.2303 11.6988 20.3667 12.0421 20.3667Z" fill="#24FFFF"/>
</svg>
