<svg width="218" height="65" viewBox="0 0 218 65" fill="none" xmlns="http://www.w3.org/2000/svg">
<path d="M209.661 63.2969H8.42676C4.34863 63.2969 1.04395 59.9922 1.04395 55.9141V8.24219C1.04395 4.16406 4.34863 0.859375 8.42676 0.859375H209.661C213.739 0.859375 217.044 4.16406 217.044 8.24219V55.9141C217.044 59.9922 213.739 63.2969 209.661 63.2969Z" fill="black"/>
<path d="M8.42285 1.66797C4.79785 1.66797 1.84863 4.61719 1.84863 8.24219V55.9141C1.84863 59.5391 4.79785 62.4883 8.42285 62.4883H209.661C213.286 62.4883 216.235 59.5391 216.235 55.9141V8.24219C216.235 4.61719 213.286 1.66797 209.661 1.66797H8.42285ZM209.661 64.1055H8.42285C3.90723 64.1055 0.235352 60.4297 0.235352 55.9141V8.24219C0.235352 3.72656 3.90723 0.0507812 8.42285 0.0507812H209.661C214.177 0.0507812 217.849 3.72656 217.849 8.24219V55.9141C217.849 60.4297 214.177 64.1055 209.661 64.1055Z" fill="#24FFFF"/>
<path d="M75.6963 16.8164L74.8682 14.2227C74.665 13.582 74.4932 12.8672 74.3369 12.2578H74.3057C74.1533 12.8672 73.9932 13.5977 73.8096 14.2227L72.9971 16.8164H75.6963ZM72.6846 18.2656L71.7783 21.25H69.7939L73.1689 10.7266H75.6182L79.0361 21.25H76.9775L76.0244 18.2656" fill="white"/>
<path d="M81.9072 13.6484L83.1416 17.5C83.3604 18.1719 83.5127 18.7812 83.6533 19.4062H83.7002C83.8408 18.7812 84.0127 18.1875 84.2158 17.5L85.4346 13.6484H87.4463L84.5439 21.25H82.6572L79.8291 13.6484" fill="white"/>
<path d="M93.2393 17.5312C91.8799 17.5156 90.583 17.7969 90.583 18.9531C90.583 19.7031 91.0674 20.0469 91.6768 20.0469C92.4541 20.0469 93.0049 19.5469 93.1885 19C93.2393 18.8594 93.2393 18.7188 93.2393 18.5781V17.5312ZM95.1104 19.4219C95.1104 20.1094 95.1416 20.7813 95.2354 21.2461H93.501L93.3643 20.4062H93.3135C92.8643 20.9961 92.0674 21.418 91.0674 21.418C89.5361 21.418 88.6807 20.3125 88.6807 19.1562C88.6807 17.25 90.3799 16.2695 93.1885 16.2852V16.1602C93.1885 15.6602 92.9893 14.832 91.6455 14.832C90.8955 14.832 90.1143 15.0664 89.5986 15.3945L89.2236 14.1445C89.7861 13.8008 90.7705 13.4766 91.9736 13.4766C94.4072 13.4766 95.1104 15.0195 95.1104 16.6914" fill="white"/>
<path d="M97.8252 13.6484H99.7432V21.25H97.8252V13.6484ZM98.7744 12.5547C98.1377 12.5547 97.7158 12.0859 97.7158 11.5234C97.7158 10.9297 98.1494 10.4766 98.7939 10.4766C99.4463 10.4766 99.8525 10.9297 99.8682 11.5234C99.8682 12.0859 99.4463 12.5547 98.7939 12.5547" fill="white"/>
<path d="M102.505 21.25H104.427V10.1484H102.505V21.25Z" fill="white"/>
<path d="M111.231 17.5312C109.872 17.5156 108.575 17.7969 108.575 18.9531C108.575 19.7031 109.06 20.0469 109.669 20.0469C110.45 20.0469 110.997 19.5469 111.185 19C111.231 18.8594 111.231 18.7188 111.231 18.5781V17.5312ZM113.103 19.4219C113.103 20.1094 113.134 20.7813 113.228 21.2461H111.497L111.356 20.4062H111.31C110.856 20.9961 110.06 21.418 109.06 21.418C107.532 21.418 106.673 20.3125 106.673 19.1562C106.673 17.25 108.376 16.2695 111.185 16.2852V16.1602C111.185 15.6602 110.981 14.832 109.638 14.832C108.888 14.832 108.106 15.0664 107.595 15.3945L107.22 14.1445C107.782 13.8008 108.763 13.4766 109.966 13.4766C112.399 13.4766 113.103 15.0195 113.103 16.6914" fill="white"/>
<path d="M117.739 18.1094C117.739 18.2656 117.755 18.4219 117.786 18.5625C117.989 19.3438 118.661 19.9062 119.485 19.9062C120.688 19.9062 121.423 18.9531 121.423 17.4102C121.423 16.0664 120.782 14.9727 119.501 14.9727C118.72 14.9727 118.005 15.5352 117.802 16.3789C117.771 16.5195 117.739 16.6914 117.739 16.8789V18.1094ZM115.817 10.1484H117.739V14.6914H117.771C118.239 13.957 119.063 13.4766 120.204 13.4766C122.063 13.4766 123.388 15.0195 123.372 17.332C123.372 20.0625 121.642 21.4219 119.923 21.4219C118.938 21.4219 118.067 21.0469 117.521 20.1094H117.489L117.396 21.25H115.755C115.786 20.7344 115.817 19.8906 115.817 19.125" fill="white"/>
<path d="M125.634 21.25H127.552V10.1484H125.634V21.25Z" fill="white"/>
<path d="M135.028 16.6445C135.044 15.9414 134.731 14.7852 133.454 14.7852C132.267 14.7852 131.767 15.8633 131.688 16.6445H135.028ZM131.688 17.9844C131.735 19.3594 132.813 19.9531 134.032 19.9531C134.919 19.9531 135.544 19.8125 136.138 19.6094L136.419 20.918C135.763 21.2031 134.856 21.4023 133.767 21.4023C131.298 21.4023 129.845 19.8906 129.845 17.5664C129.845 15.457 131.126 13.4766 133.563 13.4766C136.028 13.4766 136.841 15.5039 136.841 17.1758C136.841 17.5352 136.81 17.8164 136.778 17.9844" fill="white"/>
<path d="M146.376 20.0312C147.466 20.0312 148.231 18.9688 148.231 17.4258C148.231 16.2383 147.7 14.8633 146.392 14.8633C145.032 14.8633 144.485 16.1914 144.485 17.457C144.485 18.9219 145.22 20.0312 146.356 20.0312H146.376ZM146.313 21.4219C144.173 21.4219 142.505 19.9531 142.505 17.5039C142.505 15.0039 144.142 13.4766 146.438 13.4766C148.7 13.4766 150.216 15.0664 150.216 17.3789C150.216 20.1719 148.247 21.4219 146.329 21.4219" fill="white"/>
<path d="M152.474 15.9102C152.474 15.0352 152.446 14.3008 152.415 13.6445H154.083L154.177 14.7852H154.224C154.567 14.1914 155.396 13.4766 156.661 13.4766C157.985 13.4766 159.36 14.332 159.36 16.7383V21.2461H157.438V16.957C157.438 15.8633 157.032 15.0352 155.989 15.0352C155.224 15.0352 154.692 15.582 154.489 16.1602C154.427 16.3164 154.396 16.5508 154.396 16.7695V21.2461H152.474" fill="white"/>
<path d="M168.208 11.6953V13.6445H170.032V15.082H168.208V18.4219C168.208 19.3594 168.458 19.8281 169.188 19.8281C169.532 19.8281 169.72 19.8125 169.938 19.75L169.97 21.1992C169.688 21.3125 169.173 21.4023 168.579 21.4023C167.864 21.4023 167.286 21.168 166.927 20.7812C166.505 20.3438 166.317 19.6406 166.317 18.6406V15.082H165.239V13.6445H166.317V12.2266" fill="white"/>
<path d="M172.169 10.1484H174.091V14.6758H174.122C174.356 14.3164 174.685 14.0195 175.075 13.8164C175.466 13.6016 175.915 13.4766 176.399 13.4766C177.696 13.4766 179.052 14.332 179.052 16.7695V21.25H177.134V16.9727C177.134 15.8789 176.728 15.0352 175.665 15.0352C174.919 15.0352 174.388 15.5352 174.169 16.1133C174.106 16.2852 174.091 16.4883 174.091 16.6914V21.25H172.169" fill="white"/>
<path d="M186.481 16.6445C186.497 15.9414 186.185 14.7852 184.903 14.7852C183.716 14.7852 183.22 15.8633 183.142 16.6445H186.481ZM183.142 17.9844C183.188 19.3594 184.263 19.9531 185.481 19.9531C186.372 19.9531 186.997 19.8125 187.587 19.6094L187.872 20.918C187.216 21.2031 186.31 21.4023 185.216 21.4023C182.751 21.4023 181.298 19.8906 181.298 17.5664C181.298 15.457 182.579 13.4766 185.013 13.4766C187.478 13.4766 188.29 15.5039 188.29 17.1758C188.29 17.5352 188.259 17.8164 188.228 17.9844" fill="white"/>
<path d="M48.8016 31.453C48.7509 26.246 53.0634 23.7108 53.2626 23.5937C50.8212 20.0312 47.036 19.5468 45.704 19.5077C42.5282 19.1757 39.4462 21.414 37.829 21.414C36.1766 21.414 33.6805 19.5429 30.9969 19.5976C27.536 19.6523 24.3016 21.6562 22.5282 24.7616C18.8719 31.1015 21.5985 40.414 25.1063 45.539C26.8641 48.0468 28.911 50.8515 31.5946 50.7499C34.2196 50.6405 35.2001 49.078 38.368 49.078C41.5087 49.078 42.4305 50.7499 45.1688 50.6874C47.9852 50.6405 49.7587 48.1679 51.4501 45.6327C53.4813 42.7577 54.2938 39.9257 54.3251 39.7812C54.2587 39.7577 48.8563 37.6952 48.8016 31.453Z" fill="white"/>
<path d="M43.6299 16.1406C45.0401 14.375 46.0127 11.9688 45.7393 9.53125C43.6963 9.625 41.1417 10.9453 39.669 12.6719C38.3682 14.1953 37.2002 16.6914 37.5049 19.0352C39.8018 19.207 42.1573 17.8789 43.6299 16.1406Z" fill="white"/>
<path d="M80.4814 41.3945L78.6689 35.7969C78.4775 35.2266 78.1182 33.8789 77.5869 31.7617H77.5244C77.3135 32.6719 76.9697 34.0195 76.5049 35.7969L74.7236 41.3945H80.4814ZM86.7471 50.3359H83.0869L81.083 44.0391H74.1221L72.2119 50.3359H68.6494L75.5557 28.8984H79.8135" fill="white"/>
<path d="M100.997 42.543C100.997 41.0352 100.657 39.7969 99.9775 38.8203C99.2354 37.8047 98.2393 37.293 96.9893 37.293C96.1416 37.293 95.3682 37.5781 94.6846 38.1367C93.9971 38.7031 93.5439 39.4375 93.3291 40.3516C93.2236 40.7734 93.1729 41.1211 93.1729 41.3945V43.9727C93.1729 45.0977 93.5166 46.0469 94.2041 46.8203C94.8955 47.5977 95.79 47.9805 96.8916 47.9805C98.1885 47.9805 99.1963 47.4844 99.9111 46.4844C100.638 45.4883 100.997 44.1758 100.997 42.543ZM104.497 42.4141C104.497 45.043 103.786 47.125 102.364 48.6484C101.091 50.0078 99.5088 50.6836 97.626 50.6836C95.5869 50.6836 94.126 49.9492 93.2354 48.4883H93.1729V56.6328H89.7354V39.9648C89.7354 38.3125 89.6963 36.6172 89.6104 34.875H92.6299L92.8213 37.3281H92.8877C94.0322 35.4805 95.7705 34.5586 98.1025 34.5586C99.9229 34.5586 101.45 35.2813 102.665 36.7227C103.884 38.168 104.497 40.0625 104.497 42.4141Z" fill="white"/>
<path d="M118.774 42.543C118.774 41.0352 118.435 39.7969 117.755 38.8203C117.013 37.8047 116.017 37.293 114.767 37.293C113.919 37.293 113.149 37.5781 112.462 38.1367C111.771 38.7031 111.325 39.4375 111.114 40.3516C111.005 40.7734 110.954 41.1211 110.954 41.3945V43.9727C110.954 45.0977 111.294 46.0469 111.981 46.8203C112.673 47.5977 113.567 47.9805 114.673 47.9805C115.966 47.9805 116.974 47.4844 117.692 46.4844C118.411 45.4883 118.774 44.1758 118.774 42.543ZM122.271 42.4141C122.271 45.043 121.563 47.125 120.142 48.6484C118.868 50.0078 117.29 50.6836 115.403 50.6836C113.368 50.6836 111.907 49.9492 111.013 48.4883H110.954V56.6328H107.517V39.9648C107.517 38.3125 107.474 36.6172 107.392 34.875H110.411L110.603 37.3281H110.669C111.81 35.4805 113.548 34.5586 115.88 34.5586C117.704 34.5586 119.224 35.2813 120.446 36.7227C121.665 38.168 122.271 40.0625 122.271 42.4141Z" fill="white"/>
<path d="M142.153 44.3242C142.153 46.1445 141.521 47.6289 140.247 48.7773C138.849 50.0273 136.907 50.6523 134.411 50.6523C132.103 50.6523 130.251 50.207 128.849 49.3164L129.646 46.457C131.157 47.3672 132.81 47.8203 134.614 47.8203C135.907 47.8203 136.915 47.5312 137.638 46.9492C138.356 46.3633 138.716 45.582 138.716 44.6055C138.716 43.7383 138.423 43 137.829 42.4062C137.235 41.8125 136.247 41.2617 134.868 40.75C131.114 39.3477 129.239 37.2969 129.239 34.6016C129.239 32.8398 129.896 31.3945 131.212 30.2695C132.524 29.1445 134.274 28.5781 136.458 28.5781C138.411 28.5781 140.032 28.9219 141.325 29.5977L140.466 32.3984C139.259 31.7422 137.892 31.4102 136.364 31.4102C135.153 31.4102 134.212 31.707 133.536 32.3008C132.966 32.832 132.677 33.4805 132.677 34.2422C132.677 35.0898 133.001 35.7891 133.661 36.3398C134.231 36.8477 135.271 37.3984 136.778 37.9961C138.622 38.7383 139.978 39.6055 140.849 40.6016C141.716 41.5977 142.153 42.8398 142.153 44.3242Z" fill="white"/>
<path d="M153.505 37.4531H149.72V44.957C149.72 46.8672 150.388 47.8203 151.728 47.8203C152.337 47.8203 152.849 47.7695 153.251 47.6641L153.345 50.2695C152.673 50.5273 151.778 50.6523 150.677 50.6523C149.321 50.6523 148.259 50.2383 147.493 49.4141C146.731 48.5859 146.349 47.1953 146.349 45.2461V37.4531H144.091V34.875H146.349V32.0469L149.72 31.0273V34.875H153.505" fill="white"/>
<path d="M167.024 42.5898C167.024 41.1641 166.716 39.9453 166.099 38.9219C165.384 37.6875 164.353 37.0703 163.017 37.0703C161.638 37.0703 160.587 37.6875 159.868 38.9219C159.251 39.9453 158.95 41.1875 158.95 42.6562C158.95 44.082 159.251 45.3008 159.868 46.3203C160.61 47.5547 161.649 48.1719 162.989 48.1719C164.298 48.1719 165.329 47.5469 166.071 46.2891C166.708 45.25 167.024 44.0156 167.024 42.5898ZM170.587 42.4805C170.587 44.8555 169.911 46.8047 168.552 48.332C167.13 49.9023 165.243 50.6836 162.892 50.6836C160.618 50.6836 158.813 49.9297 157.466 48.4258C156.122 46.9219 155.45 45.0234 155.45 42.7344C155.45 40.3359 156.142 38.375 157.532 36.8516C158.919 35.3203 160.79 34.5586 163.142 34.5586C165.411 34.5586 167.239 35.3125 168.614 36.8164C169.931 38.2852 170.587 40.168 170.587 42.4805Z" fill="white"/>
<path d="M181.751 37.8984C181.411 37.8359 181.052 37.8047 180.669 37.8047C179.462 37.8047 178.524 38.2617 177.868 39.1719C177.298 39.9805 177.013 40.9961 177.013 42.2227V50.3359H173.579L173.606 39.7461C173.606 37.9609 173.563 36.3398 173.481 34.875H176.474L176.599 37.8359H176.688C177.052 36.8203 177.626 36 178.407 35.3867C179.173 34.8359 180.001 34.5586 180.892 34.5586C181.208 34.5586 181.497 34.582 181.751 34.6211" fill="white"/>
<path d="M193.833 40.9844C193.856 39.9688 193.634 39.0859 193.169 38.3438C192.575 37.3906 191.657 36.9102 190.431 36.9102C189.31 36.9102 188.396 37.3789 187.696 38.3125C187.126 39.0547 186.782 39.9453 186.685 40.9844H193.833ZM197.106 41.875C197.106 42.4922 197.067 43.0078 196.985 43.4336H186.685C186.72 44.9609 187.22 46.1289 188.177 46.9336C189.044 47.6563 190.169 48.0117 191.548 48.0117C193.071 48.0117 194.462 47.7695 195.716 47.2812L196.255 49.668C194.79 50.3008 193.063 50.625 191.067 50.625C188.673 50.625 186.79 49.918 185.423 48.5039C184.06 47.0977 183.372 45.2031 183.372 42.8281C183.372 40.4961 184.005 38.5547 185.282 37.0078C186.614 35.3516 188.419 34.5273 190.685 34.5273C192.911 34.5273 194.603 35.3516 195.747 37.0078C196.657 38.3203 197.106 39.9453 197.106 41.875Z" fill="white"/>
</svg>
