<svg xmlns="http://www.w3.org/2000/svg" width="25" height="25" fill="none" viewBox="0 0 25 25"><path fill="#24FFFF" d="M8.6473 20.5225H8.5673C6.95566 20.5084 5.36732 20.1361 3.9173 19.4325C3.65057 19.3072 3.43096 19.0998 3.2906 18.8407C3.15025 18.5816 3.09652 18.2843 3.1373 17.9925C3.18164 17.6987 3.31769 17.4263 3.526 17.2144C3.73432 17.0025 4.00427 16.8618 4.2973 16.8125C5.19591 16.6926 6.06038 16.3897 6.8373 15.9225C5.48846 14.8679 4.45005 13.4681 3.83212 11.8713C3.21418 10.2745 3.03975 8.54033 3.3273 6.85248C3.36629 6.58513 3.48126 6.33462 3.65855 6.13074C3.83583 5.92686 4.06795 5.77822 4.3273 5.70248C4.57961 5.62324 4.84964 5.61985 5.10387 5.69274C5.35809 5.76563 5.5853 5.91159 5.7573 6.11248C6.3413 6.87826 7.07519 7.51704 7.9142 7.98985C8.75321 8.46265 9.67975 8.75957 10.6373 8.86248C10.683 7.68433 11.1893 6.5712 12.0473 5.76248C12.4757 5.35226 12.9815 5.03139 13.5351 4.81859C14.0888 4.60579 14.6792 4.5053 15.2721 4.52298C15.865 4.54067 16.4484 4.67617 16.9884 4.92159C17.5284 5.16702 18.0141 5.51745 18.4173 5.95248C18.5223 6.04535 18.6529 6.10453 18.7919 6.12236C18.931 6.14019 19.0722 6.11585 19.1973 6.05248C19.4357 5.94003 19.7012 5.8977 19.9628 5.93043C20.2244 5.96315 20.4713 6.0696 20.6746 6.23733C20.878 6.40506 21.0295 6.62717 21.1114 6.87774C21.1933 7.12831 21.2023 7.397 21.1373 7.65248C20.9066 8.6026 20.4696 9.49027 19.8573 10.2525C19.7223 13.0972 18.4682 15.7733 16.3682 17.6971C14.2683 19.6209 11.493 20.6365 8.6473 20.5225ZM8.6473 18.5225H8.7273C9.88997 18.5625 11.049 18.3713 12.1372 17.96C13.2254 17.5486 14.2212 16.9254 15.0667 16.1264C15.9123 15.3273 16.5908 14.3684 17.063 13.3052C17.5351 12.2419 17.7915 11.0956 17.8173 9.93248C17.8338 9.61373 17.9653 9.31176 18.1873 9.08248C18.4312 8.77373 18.6392 8.43824 18.8073 8.08248C18.447 8.08317 18.0907 8.00781 17.7616 7.86134C17.4324 7.71487 17.1379 7.50058 16.8973 7.23248C16.6659 7.00304 16.391 6.82206 16.0888 6.70015C15.7866 6.57823 15.4631 6.51783 15.1373 6.52248C14.8082 6.51397 14.4807 6.57055 14.1735 6.68895C13.8663 6.80736 13.5855 6.98528 13.3473 7.21248C13.0259 7.51748 12.7902 7.90155 12.6638 8.32625C12.5375 8.75095 12.5249 9.20138 12.6273 9.63248L12.8873 10.7725L11.7173 10.8525C10.5184 10.9502 9.31256 10.7862 8.18331 10.3718C7.05406 9.95744 6.02838 9.30253 5.1773 8.45248C5.1408 9.76888 5.4701 11.0696 6.12859 12.2101C6.78709 13.3505 7.74897 14.286 8.9073 14.9125L9.8573 15.4525L9.2273 16.3525C8.54599 17.246 7.61248 17.9148 6.5473 18.2725C7.23061 18.4437 7.93287 18.5278 8.6373 18.5225H8.6473Z"/></svg>